<svg width="150" height="160" viewBox="0 0 150 160" fill="none" xmlns="http://www.w3.org/2000/svg">
<g clip-path="url(#clip0_13_596)">
<path d="M70.4446 91.5216C59.9388 91.5216 47.8651 79.9206 37.1828 85.4325C4.8397 102.121 9.29191 74.1953 0 63.8094L0.305055 63.2006C10.5576 72.3484 23.3583 79.7913 37.3232 84.7243C49.9432 89.1826 62.6578 91.2483 74.0879 90.7032L74.1077 91.435C72.9006 91.4929 71.6796 91.5218 70.4446 91.5216Z" fill="#F2F2F2"/>
<path d="M147.132 24.0947C138.758 30.4065 122.094 28.4125 116.923 39.2243C101.266 71.9595 87.8711 47.0232 74.1624 44.3265L74.0361 43.6578C87.7595 44.7905 102.48 43.0331 116.605 38.5754C129.37 34.5473 140.759 28.5551 149.54 21.2534L150 21.8249C149.073 22.5963 148.117 23.3529 147.132 24.0947Z" fill="#F2F2F2"/>
<path d="M23.2783 42.8348C24.4911 42.8348 25.4743 41.5229 25.4743 39.9046C25.4743 38.2863 24.4911 36.9744 23.2783 36.9744C22.0655 36.9744 21.0823 38.2863 21.0823 39.9046C21.0823 41.5229 22.0655 42.8348 23.2783 42.8348Z" fill="#E6E6E6"/>
<path d="M115.565 70.2553C116.777 70.2553 117.761 68.9434 117.761 67.3251C117.761 65.7067 116.777 64.3948 115.565 64.3948C114.352 64.3948 113.369 65.7067 113.369 67.3251C113.369 68.9434 114.352 70.2553 115.565 70.2553Z" fill="#E6E6E6"/>
<path d="M55.2535 6.36046C56.4663 6.36046 57.4495 5.04855 57.4495 3.43023C57.4495 1.81191 56.4663 0.5 55.2535 0.5C54.0407 0.5 53.0575 1.81191 53.0575 3.43023C53.0575 5.04855 54.0407 6.36046 55.2535 6.36046Z" fill="#E6E6E6"/>
<path d="M94.6231 108.664L92.0694 93.3818C92.018 93.0724 92.0921 92.7554 92.2754 92.5003C92.4586 92.2452 92.7361 92.0729 93.0468 92.0211L104.645 90.102C104.956 90.0509 105.275 90.1246 105.531 90.307C105.787 90.4893 105.96 90.7654 106.012 91.0746L108.566 106.357C108.617 106.666 108.543 106.983 108.36 107.238C108.177 107.493 107.899 107.665 107.589 107.717L95.9905 109.636C95.6796 109.687 95.361 109.614 95.1047 109.431C94.8483 109.249 94.6751 108.973 94.6231 108.664Z" fill="#3F3D56"/>
<path d="M94.7414 103.901L93.0996 94.0761C93.0515 93.7863 93.1209 93.4895 93.2925 93.2506C93.4641 93.0117 93.724 92.8503 94.015 92.8018L103.983 91.1525C104.274 91.1046 104.572 91.1736 104.812 91.3444C105.052 91.5152 105.215 91.7737 105.263 92.0634L107.536 105.662C107.584 105.952 107.515 106.249 107.343 106.488C107.171 106.727 106.911 106.888 106.62 106.936L100.446 107.958C99.1486 108.171 97.8197 107.864 96.7503 107.103C95.681 106.342 94.9585 105.191 94.7414 103.901Z" fill="white"/>
<path d="M95.1717 96.5503C95.1247 96.2671 95.1925 95.977 95.3602 95.7436C95.5279 95.5101 95.7818 95.3524 96.0662 95.305L102.981 94.1609C103.122 94.1376 103.266 94.1421 103.405 94.1742C103.544 94.2063 103.676 94.2654 103.792 94.3481C103.908 94.4307 104.007 94.5353 104.082 94.656C104.158 94.7766 104.209 94.9108 104.232 95.051C104.256 95.1912 104.251 95.3347 104.219 95.4731C104.186 95.6116 104.127 95.7424 104.044 95.858C103.961 95.9736 103.856 96.0718 103.735 96.147C103.613 96.2222 103.479 96.2729 103.338 96.2962L96.423 97.4404C96.1385 97.4871 95.847 97.4197 95.6124 97.2528C95.3778 97.0859 95.2193 96.8333 95.1717 96.5503Z" fill="#5C7A77"/>
<path d="M95.7267 99.8719C95.6797 99.5888 95.7475 99.2987 95.9152 99.0653C96.0829 98.8318 96.3368 98.6741 96.6213 98.6267L103.536 97.4826C103.677 97.4592 103.821 97.4638 103.96 97.4959C104.099 97.528 104.231 97.5871 104.347 97.6697C104.463 97.7524 104.562 97.857 104.637 97.9776C104.713 98.0982 104.764 98.2325 104.787 98.3727C104.811 98.5129 104.806 98.6563 104.774 98.7948C104.742 98.9332 104.682 99.064 104.599 99.1797C104.516 99.2953 104.411 99.3935 104.29 99.4687C104.168 99.5439 104.034 99.5946 103.893 99.6179L96.9781 100.762C96.6936 100.809 96.402 100.741 96.1674 100.574C95.9328 100.408 95.7743 100.155 95.7267 99.8719Z" fill="#5C7A77"/>
<path d="M96.2818 103.194C96.2348 102.91 96.3026 102.62 96.4703 102.387C96.638 102.153 96.8919 101.996 97.1763 101.948L104.091 100.804C104.375 100.757 104.667 100.824 104.902 100.991C105.137 101.158 105.295 101.411 105.342 101.694C105.39 101.978 105.322 102.268 105.154 102.501C104.986 102.735 104.732 102.892 104.448 102.94L97.5331 104.084C97.2486 104.13 96.9571 104.063 96.7225 103.896C96.4879 103.729 96.3294 103.477 96.2818 103.194Z" fill="#5C7A77"/>
<path d="M89.3863 94.26C89.0843 93.9217 88.8604 93.5216 88.7305 93.0879C88.6006 92.6542 88.5678 92.1975 88.6345 91.7498C88.7012 91.3021 88.8658 90.8745 89.1165 90.4969C89.3673 90.1194 89.6982 89.8012 90.086 89.5647L86.0404 70.396L91.4025 72.4475L94.5066 90.7603C94.8628 91.4348 94.9578 92.2158 94.7739 92.9554C94.59 93.6951 94.1398 94.3418 93.5086 94.7732C92.8775 95.2046 92.1093 95.3906 91.3495 95.2961C90.5897 95.2015 89.8912 94.8328 89.3863 94.26Z" fill="#FFB8B8"/>
<path d="M87.6012 154.886L92.0146 154.886L94.1143 137.946L87.6005 137.946L87.6012 154.886Z" fill="#FFB6B6"/>
<path d="M86.4753 153.452L87.7176 153.452L92.5677 151.49L95.1672 153.452H95.1676C96.6366 153.452 98.0455 154.033 99.0842 155.067C100.123 156.1 100.707 157.502 100.707 158.964V159.143L86.4756 159.144L86.4753 153.452Z" fill="#2F2E41"/>
<path d="M47.7219 149.176L51.672 151.135L61.1453 136.906L55.3154 134.015L47.7219 149.176Z" fill="#FFB6B6"/>
<path d="M47.3571 147.393L48.469 147.945L53.6896 148.341L55.1364 151.251L55.1367 151.251C56.4514 151.904 57.452 153.049 57.9183 154.435C58.3846 155.821 58.2784 157.335 57.6232 158.643L57.5429 158.804L44.806 152.487L47.3571 147.393Z" fill="#2F2E41"/>
<path d="M89.5567 77.9506L61.4941 78.6791L61.9822 92.2772C61.9822 92.2772 61.4941 95.9195 62.4702 96.8908C63.4463 97.8621 63.9344 97.8621 63.4463 99.5619C62.9583 101.262 61.6965 117.502 61.6965 117.502C61.6965 117.502 50.1788 137.767 50.6669 138.253C51.1549 138.739 51.643 138.253 51.1549 139.467C50.6669 140.681 50.1788 140.196 50.6669 140.681C51.0992 141.145 51.5065 141.631 51.887 142.138H59.8412C59.8412 142.138 60.2861 139.71 60.2861 139.467C60.2861 139.224 60.7741 137.767 60.7741 137.525C60.7741 137.282 74.6713 122.63 74.6713 122.63L77.5996 98.3478L84.6763 122.144C84.6763 122.144 84.6763 143.027 85.1643 143.513C85.6523 143.998 85.6523 143.756 85.4083 144.727C85.1643 145.698 84.1882 145.455 84.9203 146.184C85.6524 146.912 85.8964 145.698 85.6524 146.912L85.4083 148.126L94.7835 148.231C94.7835 148.231 95.7596 146.184 95.2715 145.455C94.7835 144.727 94.8128 144.926 95.4082 143.734C96.0036 142.542 96.2476 142.299 96.0036 142.056C95.7596 141.813 95.7596 140.522 95.7596 140.522C95.7596 140.522 92.241 92.7628 92.241 92.0344C92.2226 91.6595 92.292 91.2855 92.4437 90.942V89.9532L91.5089 86.4494L89.5567 77.9506Z" fill="#2F2E41"/>
<path d="M114.854 145.76L115.096 140.343C117.62 139 120.435 138.291 123.297 138.277C119.358 141.481 119.851 147.659 117.18 151.968C116.337 153.306 115.202 154.438 113.859 155.28C112.516 156.122 111.001 156.652 109.424 156.832L106.128 158.84C105.675 156.331 105.775 153.754 106.42 151.287C107.065 148.82 108.24 146.521 109.863 144.549C110.785 143.452 111.842 142.475 113.009 141.64C113.799 143.712 114.854 145.76 114.854 145.76Z" fill="#F2F2F2"/>
<path d="M75.0259 30.2621L89.0822 58.5496L86.3321 92.88L68.3703 91.247L65.1494 34.3932L75.0259 30.2621Z" fill="#2F2E41"/>
<path d="M94.7635 89.09L86.5498 88.3429L86.5371 88.2392L81.0251 42.8248L82.2587 39.4217C82.5538 38.6137 83.054 37.8954 83.7106 37.3367C84.3672 36.7779 85.1579 36.3977 86.0058 36.2329C86.6518 36.1091 87.316 36.1136 87.9601 36.2464C88.6043 36.3791 89.2157 36.6374 89.7591 37.0063C90.3025 37.3753 90.7672 37.8475 91.1264 38.3959C91.4855 38.9444 91.7321 39.5581 91.8519 40.2017L93.327 48.1301L95.4196 74.9304L94.7635 89.09Z" fill="#2F2E41"/>
<path d="M73.3787 34.457L75.0352 30.5133L80.1621 30.6028L85.5082 38.1278L91.1193 61.6093C91.1193 61.6093 93.1347 78.7625 91.1193 79.668C89.104 80.5735 82.2731 79.4553 82.2731 79.4553L73.3787 34.457Z" fill="#5C7A77"/>
<path d="M80.1621 30.6028C80.1621 30.6028 91.206 36.9555 91.638 40.2716C92.07 43.5877 93.5162 84.175 93.5162 84.175L89.6107 81.6638L88.5433 66.8711L83.777 36.5848L80.1621 30.6028Z" fill="#2F2E41"/>
<path d="M77.5549 28.7551C81.7119 28.7551 85.0817 25.4018 85.0817 21.2652C85.0817 17.1287 81.7119 13.7754 77.5549 13.7754C73.398 13.7754 70.0281 17.1287 70.0281 21.2652C70.0281 25.4018 73.398 28.7551 77.5549 28.7551Z" fill="#FFB8B8"/>
<path d="M69.0174 16.3439C69.8626 15.0428 71.4486 14.1756 72.9862 14.4193C73.1293 13.4429 73.5389 12.5243 74.1703 11.7634C74.8017 11.0026 75.6309 10.4288 76.5673 10.1044C77.5038 9.77996 78.5118 9.71745 79.4816 9.92363C80.4513 10.1298 81.3456 10.5968 82.0671 11.2737C82.3044 11.1075 82.5807 11.005 82.8695 10.9763C83.1582 10.9475 83.4495 10.9934 83.7152 11.1096C84.2444 11.349 84.7047 11.7167 85.0541 12.1791C85.9364 13.2739 86.5038 14.5863 86.696 15.9766C86.8882 17.3668 86.6979 18.7829 86.1454 20.0741C86.3334 19.3944 85.6488 18.7549 84.9571 18.6024C84.2654 18.4498 83.5398 18.5941 82.8384 18.4948C81.9394 18.3675 81.1313 17.8485 80.2308 17.7317C79.4741 17.6336 78.7131 17.8267 77.9752 18.0202C77.2372 18.2137 76.4782 18.411 75.7204 18.3215C74.9625 18.2319 73.9863 21.0898 73.9994 23.1027C74.0019 23.4842 73.9229 23.974 73.5483 24.0549C73.087 24.1546 72.8196 23.5209 72.3805 23.3483C72.1781 23.2906 71.9611 23.3133 71.7752 23.4116C71.5893 23.51 71.4491 23.6763 71.384 23.8756C71.3287 24.0781 71.3228 24.2909 71.3668 24.4962C71.4107 24.7015 71.5034 24.8933 71.6369 25.0558C71.9068 25.3779 72.2273 25.6545 72.5858 25.8749L72.405 26.0246C72.1041 26.4201 71.4801 26.4372 71.0465 26.1925C70.6319 25.9131 70.2961 25.5326 70.0712 25.0874C69.2689 23.7597 68.5653 22.3451 68.2822 20.8217C67.999 19.2982 68.1723 17.645 69.0174 16.3439Z" fill="#2F2E41"/>
<path d="M52.6229 71.8131L67.6605 55.7592C67.9652 55.4347 68.3869 55.2436 68.833 55.228C69.2791 55.2124 69.7132 55.3735 70.0401 55.676L82.2242 66.9769C82.5504 67.2801 82.7424 67.6997 82.7581 68.1436C82.7738 68.5876 82.6118 69.0195 82.3078 69.3448L67.2703 85.3987C66.9656 85.7233 66.5439 85.9143 66.0978 85.9299C65.6517 85.9455 65.2176 85.7844 64.8907 85.4819L52.7065 74.181C52.3804 73.8778 52.1884 73.4582 52.1727 73.0143C52.157 72.5704 52.3189 72.1384 52.6229 71.8131Z" fill="#E6E6E6"/>
<path d="M58.0994 67.831L67.767 57.5101C68.0523 57.2061 68.4472 57.0272 68.865 57.0126C69.2828 56.998 69.6894 57.1489 69.9955 57.4322L80.4668 67.1443C80.7723 67.4283 80.9521 67.8213 80.9668 68.237C80.9815 68.6528 80.8299 69.0573 80.5452 69.362L67.1638 83.6478C66.8784 83.9517 66.4835 84.1307 66.0657 84.1453C65.6478 84.1599 65.2413 84.009 64.9351 83.7256L58.4484 77.7092C57.0877 76.4442 56.2867 74.6938 56.2213 72.8419C56.1558 70.99 56.8313 69.1879 58.0994 67.831Z" fill="white"/>
<path d="M66.7649 61.9624C67.0438 61.6653 67.4297 61.4904 67.838 61.4762C68.2463 61.4619 68.6435 61.6093 68.9427 61.8862L76.2066 68.6235C76.5055 68.9008 76.6815 69.2848 76.6959 69.6912C76.7102 70.0976 76.5618 70.4931 76.2831 70.7905C76.0045 71.088 75.6185 71.2632 75.2101 71.2774C74.8017 71.2917 74.4043 71.144 74.1054 70.8667L66.8415 64.1294C66.5429 63.8519 66.3672 63.4679 66.3529 63.0616C66.3385 62.6554 66.4867 62.26 66.7649 61.9624Z" fill="#E6E6E6"/>
<path d="M63.4964 65.4518C63.7753 65.1547 64.1612 64.9799 64.5695 64.9656C64.9777 64.9513 65.375 65.0988 65.6742 65.3756L72.938 72.1129C73.0861 72.2502 73.2054 72.4152 73.2894 72.5984C73.3734 72.7816 73.4202 72.9795 73.4273 73.1807C73.4345 73.3819 73.4016 73.5826 73.3308 73.7712C73.26 73.9598 73.1526 74.1327 73.0146 74.28C72.8766 74.4273 72.7108 74.5461 72.5267 74.6296C72.3426 74.7132 72.1438 74.7598 71.9416 74.7669C71.7393 74.774 71.5377 74.7413 71.3481 74.6709C71.1586 74.6004 70.9848 74.4935 70.8368 74.3562L63.5729 67.6189C63.2744 67.3414 63.0987 66.9574 63.0843 66.5511C63.07 66.1448 63.2182 65.7495 63.4964 65.4518Z" fill="#E6E6E6"/>
<path d="M60.2278 68.9413C60.5067 68.6442 60.8926 68.4694 61.3009 68.4551C61.7092 68.4408 62.1065 68.5883 62.4056 68.8651L69.6695 75.6024C69.9684 75.8797 70.1444 76.2638 70.1588 76.6702C70.1731 77.0766 70.0247 77.472 69.746 77.7695C69.4674 78.0669 69.0814 78.2421 68.673 78.2564C68.2646 78.2707 67.8672 78.1229 67.5683 77.8456L60.3044 71.1083C60.0058 70.8308 59.8301 70.4468 59.8158 70.0406C59.8014 69.6343 59.9496 69.239 60.2278 68.9413Z" fill="#E6E6E6"/>
<path d="M77.9017 88.0762L72.7028 95.4838L72.4604 95.7743C72.0393 96.2782 71.4578 96.6236 70.8122 96.7534C70.7207 96.7717 70.6289 96.7854 70.5367 96.7944C70.4228 96.806 70.3084 96.8107 70.1939 96.8084C70.1284 96.8073 70.0629 96.8037 69.9977 96.798C69.6184 96.7655 69.2494 96.6585 68.9119 96.4832L66.6938 94.9417C66.5172 94.8192 66.3912 94.6371 66.3392 94.4292C66.3134 94.3264 66.306 94.2199 66.3175 94.1145C66.3339 93.9669 66.3873 93.8257 66.4729 93.704L72.8746 84.5826C73.0104 84.3896 73.2177 84.258 73.451 84.2168C73.6842 84.1755 73.9244 84.228 74.1187 84.3628L77.6809 86.8383C77.6893 86.8441 77.6974 86.85 77.7057 86.8561C77.711 86.8601 77.7163 86.864 77.7214 86.8684C77.7286 86.8736 77.7355 86.8793 77.7421 86.885C77.7509 86.8919 77.7592 86.8991 77.7674 86.9065C77.7749 86.9133 77.7823 86.9202 77.7897 86.9272L77.794 86.9313C77.8033 86.9403 77.8125 86.9495 77.8213 86.9589C77.8301 86.9681 77.8389 86.9778 77.8472 86.9874C77.8532 86.9944 77.8593 87.0016 77.8652 87.0088L77.8658 87.0095C77.8829 87.0308 77.8991 87.0529 77.9142 87.0759C77.9191 87.0829 77.9237 87.0902 77.9281 87.0974L77.9301 87.1005C77.9338 87.1064 77.9373 87.1122 77.9406 87.1181C77.951 87.1356 77.9606 87.1536 77.9698 87.1719C77.9848 87.2022 77.998 87.2333 78.0096 87.265C78.0133 87.2751 78.0166 87.2855 78.0198 87.2957C78.0226 87.3041 78.0253 87.3126 78.0275 87.3213L78.0281 87.3232L78.0291 87.3266C78.0314 87.334 78.0334 87.3415 78.0352 87.3489C78.0389 87.3631 78.0421 87.3775 78.045 87.3921C78.0459 87.396 78.0468 87.3999 78.0475 87.404C78.0484 87.408 78.0489 87.412 78.0496 87.4161C78.0505 87.42 78.051 87.424 78.0517 87.4278L78.0529 87.4341C78.0546 87.4459 78.0561 87.4577 78.0573 87.4694C78.059 87.4842 78.0603 87.499 78.0609 87.5136C78.0618 87.5258 78.0623 87.5378 78.0625 87.5499C78.0628 87.5609 78.0628 87.5717 78.0626 87.5827C78.0627 87.5855 78.0626 87.5883 78.0623 87.5911C78.0622 87.6024 78.0616 87.6136 78.0609 87.6248C78.0593 87.653 78.0559 87.6812 78.0515 87.709C78.0498 87.7194 78.048 87.7295 78.0458 87.7397C78.0435 87.7522 78.0407 87.7644 78.0378 87.7766C78.0368 87.7811 78.0355 87.7858 78.0343 87.7902C78.0326 87.7971 78.0307 87.8038 78.0288 87.8105C78.0266 87.8179 78.0244 87.8255 78.0221 87.8327L78.0163 87.8504C78.0128 87.861 78.009 87.8712 78.0051 87.8815C78.0028 87.8876 78.0004 87.8937 77.9978 87.8999C77.9798 87.9441 77.9584 87.9868 77.9336 88.0276C77.9303 88.0326 77.9274 88.0375 77.9242 88.0425C77.917 88.0539 77.9095 88.065 77.9017 88.0762Z" fill="white"/>
<path d="M74.3809 88.3575C74.8024 88.3575 75.1441 88.0175 75.1441 87.5981C75.1441 87.1787 74.8024 86.8387 74.3809 86.8387C73.9595 86.8387 73.6178 87.1787 73.6178 87.5981C73.6178 88.0175 73.9595 88.3575 74.3809 88.3575Z" fill="#5C7A77"/>
<path d="M65.7598 95.6229C65.4577 95.2846 65.2338 94.8846 65.1039 94.4508C64.974 94.0171 64.9413 93.5604 65.008 93.1127C65.0747 92.6651 65.2392 92.2374 65.49 91.8599C65.7407 91.4823 66.0717 91.1641 66.4594 90.9276L62.4138 71.7589L67.7759 73.8104L70.88 92.1232C71.2362 92.7977 71.3313 93.5787 71.1473 94.3184C70.9634 95.058 70.5132 95.7048 69.8821 96.1361C69.2509 96.5675 68.4827 96.7536 67.7229 96.659C66.9631 96.5644 66.2646 96.1958 65.7598 95.6229Z" fill="#FFB8B8"/>
<path d="M62.789 87.8446L60.6067 73.8532L59.7867 46.9822L60.3962 38.9283C60.4456 38.2755 60.6244 37.639 60.9221 37.0553C61.2199 36.4716 61.6308 35.9523 62.1311 35.5273C62.6315 35.1024 63.2114 34.7801 63.8375 34.5792C64.4635 34.3782 65.1233 34.3025 65.7789 34.3565C66.6398 34.4295 67.467 34.7228 68.1802 35.208C68.8934 35.6932 69.4684 36.3537 69.8492 37.1253L71.4436 40.3767L70.8743 86.222L62.789 87.8446Z" fill="#2F2E41"/>
<path d="M131.429 159.098C131.429 159.151 131.418 159.203 131.398 159.252C131.378 159.301 131.348 159.345 131.311 159.383C131.273 159.42 131.229 159.45 131.179 159.47C131.13 159.49 131.078 159.5 131.025 159.5H22.3479C22.2408 159.5 22.1381 159.458 22.0624 159.382C21.9866 159.307 21.9441 159.205 21.9441 159.098C21.9441 158.992 21.9866 158.889 22.0624 158.814C22.1381 158.739 22.2408 158.696 22.3479 158.696H131.025C131.078 158.696 131.13 158.707 131.179 158.727C131.229 158.747 131.273 158.776 131.311 158.814C131.348 158.851 131.378 158.895 131.398 158.944C131.418 158.993 131.429 159.045 131.429 159.098Z" fill="#CCCCCC"/>
<path d="M71.6609 24.3011C71.6657 24.2163 71.6913 24.1339 71.7356 24.0613C71.7799 23.9887 71.8415 23.9281 71.9149 23.8847C71.9883 23.8414 72.0713 23.8168 72.1566 23.8129C72.2419 23.8091 72.3268 23.8262 72.4038 23.8628C72.4809 23.8993 72.5477 23.9542 72.5984 24.0226C72.6491 24.0909 72.6821 24.1706 72.6945 24.2547C72.7068 24.3387 72.6983 24.4245 72.6694 24.5045C72.6406 24.5844 72.5924 24.6561 72.5292 24.7131L73.403 26.1421C73.4389 26.2007 73.4499 26.271 73.4336 26.3377C73.4173 26.4044 73.375 26.4619 73.3161 26.4975C73.2572 26.5332 73.1865 26.5441 73.1195 26.5279C73.0525 26.5117 72.9947 26.4696 72.9589 26.411L71.9764 24.8043C71.8782 24.7629 71.7952 24.6924 71.7387 24.6023C71.6823 24.5123 71.6551 24.4071 71.6609 24.3011Z" fill="white"/>
<path d="M72.2742 25.2725C72.3065 25.3363 72.3847 25.3619 72.4488 25.3298C72.5129 25.2976 72.5386 25.2198 72.5063 25.156L72.2722 24.6941C72.2398 24.6303 72.1617 24.6047 72.0976 24.6369C72.0335 24.669 72.0077 24.7468 72.0401 24.8106L72.2742 25.2725Z" fill="#2F2E41"/>
</g>
<defs>
<clipPath id="clip0_13_596">
<rect width="150" height="159" fill="white" transform="translate(0 0.5)"/>
</clipPath>
</defs>
</svg>
