<svg width="194" height="116" viewBox="0 0 194 116" fill="none" xmlns="http://www.w3.org/2000/svg">
<g clip-path="url(#clip0_28_1086)">
<path d="M193.844 71.5898L183.016 19.4886C182.183 15.4739 178.241 12.8908 174.228 13.7243L140.757 20.6783L135.287 21.814L66.3997 36.1261L37.4174 42.1481L5.92148 48.6917C1.90933 49.5252 -0.677416 53.4667 0.156193 57.4782L10.9836 109.579C11.8172 113.594 15.7625 116.177 19.7747 115.344L41.28 110.877L55.62 107.897L60.4371 106.895L75.5026 103.764L119.429 94.6406L136.601 91.0714L137.483 90.89L153.744 87.5116L163.334 85.517L166.853 84.7853L188.082 80.3762C192.094 79.5428 194.677 75.6013 193.844 71.5898ZM187.951 79.7527L166.98 84.1109L162.955 84.9476L153.725 86.8627L137.457 90.2443L136.894 90.362L119.468 93.9821L75.4613 103.125L60.3576 106.265L55.7155 107.229L41.3182 110.219L19.6443 114.723C15.9694 115.487 12.3708 113.126 11.6072 109.452L11.5945 109.382C6.5801 85.2657 16.8221 61.5246 35.7501 48.1796C42.26 43.5859 49.7943 40.2266 58.0922 38.5024L66.912 36.6701L135.055 22.5107L145.071 20.4302L174.356 14.3446C178.031 13.5811 181.629 15.9416 182.393 19.6158L193.223 71.7171C193.987 75.3913 191.626 78.9893 187.951 79.7527Z" fill="#3F3D56"/>
<path d="M46.3793 14.3908C45.2564 10.2976 54.3132 6.78752 56.6914 10.0838C57.0221 9.61521 58.2443 9.33053 58.8051 9.4743C59.3539 9.65652 59.8612 9.94579 60.2975 10.3254C60.9302 10.8113 61.5858 11.3144 61.974 12.0131C62.3651 12.7089 62.4255 13.6577 61.8993 14.2614C61.4823 14.7416 60.2515 15.0521 59.6246 15.1786C59.1875 15.2678 58.8194 15.3396 58.5031 15.3914C58.2158 14.9775 58.0834 14.4757 58.1293 13.9739C57.6982 14.2647 57.4197 14.7329 57.3701 15.2505C57.3615 15.3569 60.9043 28.39 60.9043 28.39C60.4786 28.6322 60.0309 28.8334 59.5671 28.9909C58.6496 27.5889 57.9469 26.0578 57.4822 24.4481C57.3754 25.5245 57.3889 26.6093 57.5225 27.6827C57.5935 28.2845 57.6953 28.8824 57.8273 29.4739C53.6173 30.3824 47.2852 30.0834 44.5303 26.2192L44.5289 26.1712C44.5238 25.8081 44.2253 25.5179 43.8621 25.523C43.5943 25.5267 43.3556 25.6924 43.2584 25.9419C43.1916 26.1124 43.1301 26.26 43.0752 26.3774C42.2729 23.5079 43.311 20.1871 46.3793 14.3908Z" fill="#2F2E41"/>
<path d="M75.5027 103.764L60.4372 106.895L60.3577 106.265L58.1273 88.3928C58.1273 88.3928 56.9978 98.1844 55.7155 107.229C55.6837 107.451 55.6519 107.674 55.6201 107.897L41.28 110.877L41.3182 110.219L43.0872 79.9977L44.5349 66.8213C44.3027 69.5857 45.1713 66.8213 46.1258 59.8227C48.2194 59.1578 64.7898 58.8333 64.7898 58.8333L73.6859 74.7583C73.6859 74.7583 73.7464 75.3436 73.8545 76.3584V76.3616C74.1441 79.056 74.7613 91.8348 75.4613 103.125C75.474 103.338 75.4899 103.551 75.5027 103.764Z" fill="#2F2E41"/>
<path d="M30.2597 86.1374C31.2281 85.4711 31.4898 84.155 30.85 83.169C30.786 83.0736 30.7141 82.9836 30.6352 82.9001L34.0722 76.1549L31.2626 73.207L27.5535 82.956C26.893 83.6838 26.806 84.7653 27.3417 85.5893C27.9743 86.5422 29.2597 86.802 30.2127 86.1695C30.2286 86.159 30.2442 86.1483 30.2597 86.1374Z" fill="#FFB6B6"/>
<path d="M94.559 70.0748C93.3952 69.9092 92.5748 68.8472 92.7087 67.6795C92.7235 67.5656 92.7478 67.4531 92.7813 67.3432L86.7002 62.8332L87.9034 58.9429L95.5656 66.0215C96.4811 66.3792 97.0406 67.3088 96.9278 68.2851C96.7857 69.4199 95.7504 70.2247 94.6154 70.0826C94.5966 70.0803 94.5778 70.0777 94.559 70.0748Z" fill="#FFB6B6"/>
<path d="M53.4167 26.4108C57.4905 26.4108 60.7929 23.109 60.7929 19.0359C60.7929 14.9629 57.4905 11.661 53.4167 11.661C49.343 11.661 46.0405 14.9629 46.0405 19.0359C46.0405 23.109 49.343 26.4108 53.4167 26.4108Z" fill="#FFB6B6"/>
<path d="M123.983 76.5397L123.928 76.6097C123.928 76.6097 124.138 75.5281 123.983 76.5397Z" fill="#2F2E41"/>
<path d="M139.91 19.3613C144.52 19.3613 148.258 15.6244 148.258 11.0146C148.258 6.40486 144.52 2.66791 139.91 2.66791C135.299 2.66791 131.562 6.40486 131.562 11.0146C131.562 15.6244 135.299 19.3613 139.91 19.3613Z" fill="#FFB6B6"/>
<path d="M129.914 9.55445C130.814 9.83382 131.682 9.99851 132.267 9.26038C132.853 8.52225 132.7 7.67825 133.57 7.32241C134.298 7.07831 135.091 7.11503 135.794 7.42534C135.92 7.47238 136.044 7.52532 136.165 7.57825C136.232 7.51943 136.3 7.46358 136.373 7.41063C136.927 7.01718 137.61 6.85089 138.282 6.946C137.791 7.18333 138.659 9.79593 138.399 10.2756C138.64 10.3962 138.884 10.5167 139.131 10.6197C141.236 11.4807 142.352 9.07296 144.303 7.90468C143.338 10.4455 144.088 11.3512 145.503 13.6715L145.559 13.8068C145.418 13.198 147.268 12.4952 147.268 13.3774C147.186 14.2813 146.989 15.1709 146.68 16.0241C148.494 13.2921 149.565 10.0955 148.862 7.02832C148.712 6.3843 148.644 5.69323 148.235 5.16976C147.827 4.64927 147.074 4.34341 146.48 4.63749C146.254 1.58946 143.214 1.2309 140.165 1.45593C139.082 1.53591 138.433 0.00294855 137.573 0.667477C136.838 1.23504 136.259 1.97906 135.603 2.64073C134.947 3.3024 134.17 3.90525 133.253 4.06993C132.67 4.17287 132.014 4.1111 131.55 4.47871C131.011 4.90512 131.006 5.65501 131.008 6.3755C131.535 6.36048 132.054 6.50279 132.5 6.78425C131.955 6.79796 131.428 6.98319 130.994 7.3136C130.985 7.31875 130.978 7.32466 130.97 7.33124C130.811 8.54283 130.876 8.7987 129.914 9.55445Z" fill="#2F2E41"/>
<path d="M81.6762 51.6523H81.7646L72.8048 42.9585L65.8033 35.4904C65.8057 35.4123 65.8072 35.3677 65.8072 35.3677L65.5937 35.2669C65.5937 35.2669 58.5525 31.0881 58.3121 31.1113L57.2313 28.4638L48.1901 26.5463L46.395 30.1591L42.8897 32.1882C42.0787 32.4595 41.3312 32.8922 40.6921 33.4602L40.3497 33.6584L40.3751 33.7625C39.2285 34.9148 38.5708 36.4651 38.5391 38.0903L35.0667 50.6528L35.0636 50.6979L28.7084 78.9131L33.1835 79.1353L44.5336 49.325C44.9141 49.2395 41.963 80.2859 42.3064 80.1824C47.1148 78.7336 77.9866 78.6233 74.3037 74.9411C72.7937 73.4313 66.4049 57.04 66.0426 51.6522C65.9943 50.9332 65.9526 50.2076 65.9173 49.4826C67.1746 50.1265 68.3955 50.839 69.5746 51.6169L69.6257 51.6523L89.4974 65.3969L92.6788 62.2425L81.6762 51.6523Z" fill="#5C7A77"/>
<path d="M42.3535 14.9659C41.2306 10.8726 50.2873 7.36255 52.6656 10.6589C52.9963 10.1902 54.2184 9.90556 54.7792 10.0493C55.3281 10.2315 55.8354 10.5208 56.2717 10.9004C56.9043 11.3863 57.5599 11.8894 57.9482 12.5881C58.3393 13.2839 58.3996 14.2327 57.8734 14.8365C57.4564 15.3166 56.2256 15.6271 55.5987 15.7537C55.1616 15.8428 54.7936 15.9147 54.4772 15.9664C54.1899 15.5525 54.0576 15.0507 54.1034 14.549C53.6723 14.8397 53.3938 15.308 53.3442 15.8255C53.3356 15.9319 56.8784 28.965 56.8784 28.965C56.4527 29.2072 56.005 29.4084 55.5412 29.5659C54.6238 28.164 53.9211 26.6328 53.4564 25.0232C53.3496 26.0995 53.3631 27.1844 53.4966 28.2577C53.5677 28.8596 53.6694 29.4574 53.8014 30.0489C49.5915 30.9575 43.2593 30.6585 40.5044 26.7943L40.503 26.7463C40.4979 26.3832 40.1994 26.0929 39.8362 26.098C39.5685 26.1018 39.3297 26.2674 39.2326 26.517C39.1657 26.6874 39.1042 26.835 39.0493 26.9524C38.247 24.083 39.2851 20.7622 42.3535 14.9659Z" fill="#2F2E41"/>
<path d="M100.935 35.513C100.924 35.5234 100.914 35.5344 100.904 35.5449C99.2455 33.8996 96.5747 33.8851 94.8986 35.5124C93.2166 37.146 93.1598 39.8279 94.7711 41.5313L94.77 41.5323L94.8101 41.5736L100.744 47.6821L106.895 41.7093L106.878 41.6917C106.888 41.6818 106.899 41.6727 106.909 41.6627C108.607 40.0134 108.647 37.2997 106.997 35.6014C105.348 33.9032 102.634 33.8636 100.935 35.513Z" fill="#5C7A77"/>
<path d="M153.744 87.5116L137.483 90.89L137.457 90.2442L137.413 89.0895L136.894 90.3619L136.601 91.0713L119.429 94.6406L119.468 93.9821L119.808 88.0079L123.454 76.6606L124.682 72.8432L150.41 70.68C150.41 70.6832 150.413 70.6832 150.413 70.6864C152.659 74.7869 153.531 80.8216 153.725 86.8627C153.735 87.079 153.741 87.2953 153.744 87.5116Z" fill="#2F2E41"/>
<path d="M135.516 21.128L144.994 20.3157L146.619 22.7526C146.619 22.7526 155.827 28.4387 156.098 29.5218C156.369 30.6049 150.14 70.6785 150.411 70.6785C150.681 70.6785 142.557 75.2816 132.808 76.0939C123.058 76.9062 122.765 76.613 122.765 76.613L126.85 66.617L127.798 54.0263L126.985 30.1987L134.297 24.7833L135.516 21.128Z" fill="#5C7A77"/>
<path d="M162.397 83.3977C162.228 82.5423 162.265 81.7195 162.466 81.0441L160.337 72.9968L164.197 72.0962L165.94 80.3562C166.383 80.9044 166.732 81.6506 166.901 82.506C167.288 84.4603 166.594 86.2441 165.35 86.4903C164.106 86.7365 162.784 85.3519 162.397 83.3977Z" fill="#FFB6B6"/>
<path d="M150.559 28.8035C150.559 28.8035 155.391 26.8141 157.665 30.5087C159.939 34.2033 165.908 77.6856 165.908 77.6856L160.934 78.3961L151.127 43.2976L150.559 28.8035Z" fill="#5C7A77"/>
<path d="M98.2049 69.8966C98.7871 69.2473 99.1744 68.5203 99.3467 67.8372L105.284 62.0021L102.424 59.2586L96.7094 65.4731C96.0489 65.7187 95.3683 66.1826 94.786 66.8319C93.4559 68.3152 93.143 70.2037 94.0871 71.05C95.0312 71.8963 96.8748 71.3799 98.2049 69.8966Z" fill="#FFB6B6"/>
<path d="M136.246 28.982C136.246 28.982 133.105 24.806 129.264 26.8235C125.423 28.841 98.0999 63.1926 98.0999 63.1926L102.015 66.3413L128.36 41.1576L136.246 28.982Z" fill="#5C7A77"/>
</g>
<defs>
<clipPath id="clip0_28_1086">
<rect width="194" height="115" fill="white" transform="translate(0 0.5)"/>
</clipPath>
</defs>
</svg>
