<svg width="216" height="160" viewBox="0 0 216 160" fill="none" xmlns="http://www.w3.org/2000/svg">
<g clip-path="url(#clip0_13_289)">
<g opacity="0.3">
<path d="M149.056 88.86H126.178C125.368 88.86 124.711 89.5159 124.711 90.3251V95.1879C124.711 95.9971 125.368 96.6531 126.178 96.6531H149.056C149.866 96.6531 150.523 95.9971 150.523 95.1879V90.3251C150.523 89.5159 149.866 88.86 149.056 88.86Z" fill="#F2F2F2"/>
<path d="M176.068 96.6531H153.19C152.38 96.6531 151.723 97.3091 151.723 98.1183V102.981C151.723 103.79 152.38 104.446 153.19 104.446H176.068C176.878 104.446 177.535 103.79 177.535 102.981V98.1183C177.535 97.3091 176.878 96.6531 176.068 96.6531Z" fill="#F2F2F2"/>
<path d="M203.081 104.448H180.204C179.394 104.448 178.737 105.104 178.737 105.913V110.776C178.737 111.585 179.394 112.241 180.204 112.241H203.081C203.892 112.241 204.548 111.585 204.548 110.776V105.913C204.548 105.104 203.892 104.448 203.081 104.448Z" fill="#F2F2F2"/>
<path d="M149.056 77.1683H126.178C125.368 77.1683 124.711 77.8243 124.711 78.6334V83.4963C124.711 84.3054 125.368 84.9614 126.178 84.9614H149.056C149.866 84.9614 150.523 84.3054 150.523 83.4963V78.6334C150.523 77.8243 149.866 77.1683 149.056 77.1683Z" fill="#F2F2F2"/>
<path d="M176.068 84.9634H153.19C152.38 84.9634 151.723 85.6194 151.723 86.4285V91.2914C151.723 92.1006 152.38 92.7565 153.19 92.7565H176.068C176.878 92.7565 177.535 92.1006 177.535 91.2914V86.4285C177.535 85.6194 176.878 84.9634 176.068 84.9634Z" fill="#F2F2F2"/>
<path d="M203.081 92.7565H180.204C179.394 92.7565 178.737 93.4125 178.737 94.2217V99.0845C178.737 99.8937 179.394 100.55 180.204 100.55H203.081C203.892 100.55 204.548 99.8937 204.548 99.0845V94.2217C204.548 93.4125 203.892 92.7565 203.081 92.7565Z" fill="#F2F2F2"/>
<path d="M149.056 61.582H126.178C125.368 61.582 124.711 62.238 124.711 63.0472V67.91C124.711 68.7192 125.368 69.3751 126.178 69.3751H149.056C149.866 69.3751 150.523 68.7192 150.523 67.91V63.0472C150.523 62.238 149.866 61.582 149.056 61.582Z" fill="#F2F2F2"/>
<path d="M176.068 69.3751H153.19C152.38 69.3751 151.723 70.0311 151.723 70.8403V75.7031C151.723 76.5123 152.38 77.1683 153.19 77.1683H176.068C176.878 77.1683 177.535 76.5123 177.535 75.7031V70.8403C177.535 70.0311 176.878 69.3751 176.068 69.3751Z" fill="#F2F2F2"/>
<path d="M203.081 77.1683H180.204C179.394 77.1683 178.737 77.8243 178.737 78.6334V83.4963C178.737 84.3054 179.394 84.9614 180.204 84.9614H203.081C203.892 84.9614 204.548 84.3054 204.548 83.4963V78.6334C204.548 77.8243 203.892 77.1683 203.081 77.1683Z" fill="#F2F2F2"/>
<path d="M149.056 49.8903H126.178C125.368 49.8903 124.711 50.5463 124.711 51.3555V56.2183C124.711 57.0275 125.368 57.6834 126.178 57.6834H149.056C149.866 57.6834 150.523 57.0275 150.523 56.2183V51.3555C150.523 50.5463 149.866 49.8903 149.056 49.8903Z" fill="#F2F2F2"/>
<path d="M176.068 57.6834H153.19C152.38 57.6834 151.723 58.3394 151.723 59.1486V64.0114C151.723 64.8206 152.38 65.4766 153.19 65.4766H176.068C176.878 65.4766 177.535 64.8206 177.535 64.0114V59.1486C177.535 58.3394 176.878 57.6834 176.068 57.6834Z" fill="#F2F2F2"/>
<path d="M203.081 65.4786H180.204C179.394 65.4786 178.737 66.1345 178.737 66.9437V71.8066C178.737 72.6157 179.394 73.2717 180.204 73.2717H203.081C203.892 73.2717 204.548 72.6157 204.548 71.8066V66.9437C204.548 66.1345 203.892 65.4786 203.081 65.4786Z" fill="#F2F2F2"/>
<path opacity="0.1" d="M149.056 88.86H126.178C125.368 88.86 124.711 89.5159 124.711 90.3251V95.1879C124.711 95.9971 125.368 96.6531 126.178 96.6531H149.056C149.866 96.6531 150.523 95.9971 150.523 95.1879V90.3251C150.523 89.5159 149.866 88.86 149.056 88.86Z" fill="#5C7A77"/>
<path opacity="0.1" d="M176.068 96.6531H153.19C152.38 96.6531 151.723 97.3091 151.723 98.1183V102.981C151.723 103.79 152.38 104.446 153.19 104.446H176.068C176.878 104.446 177.535 103.79 177.535 102.981V98.1183C177.535 97.3091 176.878 96.6531 176.068 96.6531Z" fill="#5C7A77"/>
<path opacity="0.1" d="M203.081 104.448H180.204C179.394 104.448 178.737 105.104 178.737 105.913V110.776C178.737 111.585 179.394 112.241 180.204 112.241H203.081C203.892 112.241 204.548 111.585 204.548 110.776V105.913C204.548 105.104 203.892 104.448 203.081 104.448Z" fill="#5C7A77"/>
<path opacity="0.1" d="M149.056 77.1683H126.178C125.368 77.1683 124.711 77.8243 124.711 78.6334V83.4963C124.711 84.3054 125.368 84.9614 126.178 84.9614H149.056C149.866 84.9614 150.523 84.3054 150.523 83.4963V78.6334C150.523 77.8243 149.866 77.1683 149.056 77.1683Z" fill="#5C7A77"/>
<path opacity="0.1" d="M176.068 84.9634H153.19C152.38 84.9634 151.723 85.6194 151.723 86.4285V91.2914C151.723 92.1006 152.38 92.7565 153.19 92.7565H176.068C176.878 92.7565 177.535 92.1006 177.535 91.2914V86.4285C177.535 85.6194 176.878 84.9634 176.068 84.9634Z" fill="#5C7A77"/>
<path opacity="0.1" d="M203.081 92.7565H180.204C179.394 92.7565 178.737 93.4125 178.737 94.2217V99.0845C178.737 99.8937 179.394 100.55 180.204 100.55H203.081C203.892 100.55 204.548 99.8937 204.548 99.0845V94.2217C204.548 93.4125 203.892 92.7565 203.081 92.7565Z" fill="#5C7A77"/>
<path opacity="0.1" d="M149.056 61.582H126.178C125.368 61.582 124.711 62.238 124.711 63.0472V67.91C124.711 68.7192 125.368 69.3751 126.178 69.3751H149.056C149.866 69.3751 150.523 68.7192 150.523 67.91V63.0472C150.523 62.238 149.866 61.582 149.056 61.582Z" fill="#5C7A77"/>
<path opacity="0.1" d="M176.068 69.3751H153.19C152.38 69.3751 151.723 70.0311 151.723 70.8403V75.7031C151.723 76.5123 152.38 77.1683 153.19 77.1683H176.068C176.878 77.1683 177.535 76.5123 177.535 75.7031V70.8403C177.535 70.0311 176.878 69.3751 176.068 69.3751Z" fill="#5C7A77"/>
<path opacity="0.1" d="M203.081 77.1683H180.204C179.394 77.1683 178.737 77.8243 178.737 78.6334V83.4963C178.737 84.3054 179.394 84.9614 180.204 84.9614H203.081C203.892 84.9614 204.548 84.3054 204.548 83.4963V78.6334C204.548 77.8243 203.892 77.1683 203.081 77.1683Z" fill="#5C7A77"/>
<path opacity="0.1" d="M149.056 49.8903H126.178C125.368 49.8903 124.711 50.5463 124.711 51.3555V56.2183C124.711 57.0275 125.368 57.6834 126.178 57.6834H149.056C149.866 57.6834 150.523 57.0275 150.523 56.2183V51.3555C150.523 50.5463 149.866 49.8903 149.056 49.8903Z" fill="#5C7A77"/>
<path opacity="0.1" d="M176.068 57.6834H153.19C152.38 57.6834 151.723 58.3394 151.723 59.1486V64.0114C151.723 64.8206 152.38 65.4766 153.19 65.4766H176.068C176.878 65.4766 177.535 64.8206 177.535 64.0114V59.1486C177.535 58.3394 176.878 57.6834 176.068 57.6834Z" fill="#5C7A77"/>
<path opacity="0.1" d="M203.081 65.4786H180.204C179.394 65.4786 178.737 66.1345 178.737 66.9437V71.8066C178.737 72.6157 179.394 73.2717 180.204 73.2717H203.081C203.892 73.2717 204.548 72.6157 204.548 71.8066V66.9437C204.548 66.1345 203.892 65.4786 203.081 65.4786Z" fill="#5C7A77"/>
</g>
<g opacity="0.3">
<path d="M47.9662 38.9697H25.0888C24.2786 38.9697 23.6218 39.6256 23.6218 40.4348V45.2977C23.6218 46.1068 24.2786 46.7628 25.0888 46.7628H47.9662C48.7764 46.7628 49.4332 46.1068 49.4332 45.2977V40.4348C49.4332 39.6256 48.7764 38.9697 47.9662 38.9697Z" fill="#F2F2F2"/>
<path d="M74.9781 46.7628H52.1006C51.2905 46.7628 50.6337 47.4188 50.6337 48.228V53.0908C50.6337 53.9 51.2905 54.5559 52.1006 54.5559H74.9781C75.7883 54.5559 76.4451 53.9 76.4451 53.0908V48.228C76.4451 47.4188 75.7883 46.7628 74.9781 46.7628Z" fill="#F2F2F2"/>
<path d="M101.992 54.5579H79.1144C78.3043 54.5579 77.6475 55.2139 77.6475 56.0231V60.8859C77.6475 61.6951 78.3043 62.3511 79.1144 62.3511H101.992C102.802 62.3511 103.459 61.6951 103.459 60.8859V56.0231C103.459 55.2139 102.802 54.5579 101.992 54.5579Z" fill="#F2F2F2"/>
<path d="M47.9662 27.278H25.0888C24.2786 27.278 23.6218 27.9339 23.6218 28.7431V33.606C23.6218 34.4151 24.2786 35.0711 25.0888 35.0711H47.9662C48.7764 35.0711 49.4332 34.4151 49.4332 33.606V28.7431C49.4332 27.9339 48.7764 27.278 47.9662 27.278Z" fill="#F2F2F2"/>
<path d="M74.9781 35.0731H52.1006C51.2905 35.0731 50.6337 35.7291 50.6337 36.5382V41.4011C50.6337 42.2103 51.2905 42.8662 52.1006 42.8662H74.9781C75.7883 42.8662 76.4451 42.2103 76.4451 41.4011V36.5382C76.4451 35.7291 75.7883 35.0731 74.9781 35.0731Z" fill="#F2F2F2"/>
<path d="M101.992 42.8662H79.1144C78.3043 42.8662 77.6475 43.5222 77.6475 44.3314V49.1942C77.6475 50.0034 78.3043 50.6594 79.1144 50.6594H101.992C102.802 50.6594 103.459 50.0034 103.459 49.1942V44.3314C103.459 43.5222 102.802 42.8662 101.992 42.8662Z" fill="#F2F2F2"/>
<path d="M47.9662 11.6917H25.0888C24.2786 11.6917 23.6218 12.3477 23.6218 13.1568V18.0197C23.6218 18.8288 24.2786 19.4848 25.0888 19.4848H47.9662C48.7764 19.4848 49.4332 18.8288 49.4332 18.0197V13.1568C49.4332 12.3477 48.7764 11.6917 47.9662 11.6917Z" fill="#F2F2F2"/>
<path d="M74.9781 19.4848H52.1006C51.2905 19.4848 50.6337 20.1408 50.6337 20.95V25.8128C50.6337 26.622 51.2905 27.278 52.1006 27.278H74.9781C75.7883 27.278 76.4451 26.622 76.4451 25.8128V20.95C76.4451 20.1408 75.7883 19.4848 74.9781 19.4848Z" fill="#F2F2F2"/>
<path d="M101.992 27.278H79.1144C78.3043 27.278 77.6475 27.9339 77.6475 28.7431V33.606C77.6475 34.4151 78.3043 35.0711 79.1144 35.0711H101.992C102.802 35.0711 103.459 34.4151 103.459 33.606V28.7431C103.459 27.9339 102.802 27.278 101.992 27.278Z" fill="#F2F2F2"/>
<path d="M47.9662 0H25.0888C24.2786 0 23.6218 0.655974 23.6218 1.46516V6.32798C23.6218 7.13717 24.2786 7.79314 25.0888 7.79314H47.9662C48.7764 7.79314 49.4332 7.13717 49.4332 6.32798V1.46516C49.4332 0.655974 48.7764 0 47.9662 0Z" fill="#F2F2F2"/>
<path d="M74.9781 7.79314H52.1006C51.2905 7.79314 50.6337 8.44911 50.6337 9.25829V14.1211C50.6337 14.9303 51.2905 15.5863 52.1006 15.5863H74.9781C75.7883 15.5863 76.4451 14.9303 76.4451 14.1211V9.25829C76.4451 8.44911 75.7883 7.79314 74.9781 7.79314Z" fill="#F2F2F2"/>
<path d="M101.992 15.5883H79.1144C78.3043 15.5883 77.6475 16.2442 77.6475 17.0534V21.9162C77.6475 22.7254 78.3043 23.3814 79.1144 23.3814H101.992C102.802 23.3814 103.459 22.7254 103.459 21.9162V17.0534C103.459 16.2442 102.802 15.5883 101.992 15.5883Z" fill="#F2F2F2"/>
<path opacity="0.1" d="M47.9662 38.9697H25.0888C24.2786 38.9697 23.6218 39.6256 23.6218 40.4348V45.2977C23.6218 46.1068 24.2786 46.7628 25.0888 46.7628H47.9662C48.7764 46.7628 49.4332 46.1068 49.4332 45.2977V40.4348C49.4332 39.6256 48.7764 38.9697 47.9662 38.9697Z" fill="#5C7A77"/>
<path opacity="0.1" d="M74.9781 46.7628H52.1006C51.2905 46.7628 50.6337 47.4188 50.6337 48.228V53.0908C50.6337 53.9 51.2905 54.5559 52.1006 54.5559H74.9781C75.7883 54.5559 76.4451 53.9 76.4451 53.0908V48.228C76.4451 47.4188 75.7883 46.7628 74.9781 46.7628Z" fill="#5C7A77"/>
<path opacity="0.1" d="M101.992 54.5579H79.1144C78.3043 54.5579 77.6475 55.2139 77.6475 56.0231V60.8859C77.6475 61.6951 78.3043 62.3511 79.1144 62.3511H101.992C102.802 62.3511 103.459 61.6951 103.459 60.8859V56.0231C103.459 55.2139 102.802 54.5579 101.992 54.5579Z" fill="#5C7A77"/>
<path opacity="0.1" d="M47.9662 27.278H25.0888C24.2786 27.278 23.6218 27.9339 23.6218 28.7431V33.606C23.6218 34.4151 24.2786 35.0711 25.0888 35.0711H47.9662C48.7764 35.0711 49.4332 34.4151 49.4332 33.606V28.7431C49.4332 27.9339 48.7764 27.278 47.9662 27.278Z" fill="#5C7A77"/>
<path opacity="0.1" d="M74.9781 35.0731H52.1006C51.2905 35.0731 50.6337 35.7291 50.6337 36.5382V41.4011C50.6337 42.2103 51.2905 42.8662 52.1006 42.8662H74.9781C75.7883 42.8662 76.4451 42.2103 76.4451 41.4011V36.5382C76.4451 35.7291 75.7883 35.0731 74.9781 35.0731Z" fill="#5C7A77"/>
<path opacity="0.1" d="M101.992 42.8662H79.1144C78.3043 42.8662 77.6475 43.5222 77.6475 44.3314V49.1942C77.6475 50.0034 78.3043 50.6594 79.1144 50.6594H101.992C102.802 50.6594 103.459 50.0034 103.459 49.1942V44.3314C103.459 43.5222 102.802 42.8662 101.992 42.8662Z" fill="#5C7A77"/>
<path opacity="0.1" d="M47.9662 11.6917H25.0888C24.2786 11.6917 23.6218 12.3477 23.6218 13.1568V18.0197C23.6218 18.8288 24.2786 19.4848 25.0888 19.4848H47.9662C48.7764 19.4848 49.4332 18.8288 49.4332 18.0197V13.1568C49.4332 12.3477 48.7764 11.6917 47.9662 11.6917Z" fill="#5C7A77"/>
<path opacity="0.1" d="M74.9781 19.4848H52.1006C51.2905 19.4848 50.6337 20.1408 50.6337 20.95V25.8128C50.6337 26.622 51.2905 27.278 52.1006 27.278H74.9781C75.7883 27.278 76.4451 26.622 76.4451 25.8128V20.95C76.4451 20.1408 75.7883 19.4848 74.9781 19.4848Z" fill="#5C7A77"/>
<path opacity="0.1" d="M101.992 27.278H79.1144C78.3043 27.278 77.6475 27.9339 77.6475 28.7431V33.606C77.6475 34.4151 78.3043 35.0711 79.1144 35.0711H101.992C102.802 35.0711 103.459 34.4151 103.459 33.606V28.7431C103.459 27.9339 102.802 27.278 101.992 27.278Z" fill="#5C7A77"/>
<path opacity="0.1" d="M47.9662 0H25.0888C24.2786 0 23.6218 0.655974 23.6218 1.46516V6.32798C23.6218 7.13717 24.2786 7.79314 25.0888 7.79314H47.9662C48.7764 7.79314 49.4332 7.13717 49.4332 6.32798V1.46516C49.4332 0.655974 48.7764 0 47.9662 0Z" fill="#5C7A77"/>
<path opacity="0.1" d="M74.9781 7.79314H52.1006C51.2905 7.79314 50.6337 8.44911 50.6337 9.25829V14.1211C50.6337 14.9303 51.2905 15.5863 52.1006 15.5863H74.9781C75.7883 15.5863 76.4451 14.9303 76.4451 14.1211V9.25829C76.4451 8.44911 75.7883 7.79314 74.9781 7.79314Z" fill="#5C7A77"/>
<path opacity="0.1" d="M101.992 15.5883H79.1144C78.3043 15.5883 77.6475 16.2442 77.6475 17.0534V21.9162C77.6475 22.7254 78.3043 23.3814 79.1144 23.3814H101.992C102.802 23.3814 103.459 22.7254 103.459 21.9162V17.0534C103.459 16.2442 102.802 15.5883 101.992 15.5883Z" fill="#5C7A77"/>
</g>
<g opacity="0.1">
<path d="M58.3654 108.891C58.3684 110.009 58.2533 111.124 58.0219 112.218C57.9785 112.415 57.9311 112.626 57.8837 112.823C56.6655 117.708 53.2241 121.281 49.1193 121.5C48.9831 121.5 48.8449 121.512 48.7027 121.512C44.359 121.512 40.6906 117.765 39.4802 112.622C39.4447 112.484 39.4151 112.348 39.3855 112.21C39.1541 111.116 39.0389 110.001 39.0419 108.883C39.0419 101.904 43.3659 96.2627 48.7027 96.2627C54.0395 96.2627 58.3654 101.912 58.3654 108.891Z" fill="#3F3D56"/>
<path opacity="0.1" d="M58.3654 108.891C58.3683 110.009 58.2532 111.124 58.0218 112.218C57.9784 112.415 57.931 112.626 57.8836 112.823C57.7375 112.823 57.5953 112.823 57.4512 112.805C56.3882 112.747 55.3317 112.603 54.2922 112.373C53.3703 112.657 52.4285 112.872 51.4747 113.016C50.7431 113.123 50.0062 113.189 49.2673 113.214C49.0185 113.214 48.7697 113.227 48.521 113.227C47.6362 113.227 46.7524 113.168 45.8753 113.052C44.4597 112.861 43.0693 112.516 41.729 112.022C40.9945 112.264 40.2462 112.462 39.4881 112.614C39.4525 112.476 39.4229 112.34 39.3933 112.202C39.1619 111.108 39.0467 109.993 39.0497 108.875C39.0497 101.897 43.3737 96.2548 48.7105 96.2548C54.0473 96.2548 58.3654 101.912 58.3654 108.891Z" fill="black"/>
<path d="M78.9762 85.3598C78.9804 82.2896 78.26 79.2616 76.8735 76.5215L65.5108 80.0493L75.4835 74.1926C73.8114 71.7784 71.6175 69.7703 69.064 68.3167C66.5105 66.863 63.6626 66.0009 60.7308 65.7941C60.2649 65.0868 59.7538 64.4103 59.2006 63.7689L42.8663 68.8427L56.2508 60.9825C53.691 59.0236 50.6876 57.7245 47.5058 57.1998C44.3241 56.675 41.0619 56.9409 38.0074 57.9739C34.9529 59.0069 32.2002 60.7753 29.9922 63.1228C27.7842 65.4702 26.189 68.3246 25.3474 71.4338L39.3282 87.5072L24.1411 76.5589C20.3006 79.2796 17.5664 83.2877 16.4367 87.853C15.3071 92.4183 15.857 97.237 17.9864 101.431C20.1159 105.626 23.683 108.916 28.038 110.704C32.3931 112.492 37.2462 112.657 41.7133 111.171C45.7575 112.654 50.1765 112.775 54.2962 111.516C57.1665 112.149 60.1427 112.132 63.0053 111.464C65.868 110.797 68.5442 109.496 70.8367 107.658C73.1292 105.82 74.9797 103.492 76.2517 100.845C77.5237 98.1983 78.1849 95.3001 78.1865 92.3641C78.1865 91.9283 78.1707 91.4965 78.143 91.0666C78.7008 89.2157 78.9816 87.2926 78.9762 85.3598Z" fill="#5C7A77"/>
<path opacity="0.1" d="M78.6386 88.998C72.6378 87.8618 66.4841 87.7837 60.4563 88.7673C53.6347 89.8952 46.6611 92.374 39.9876 90.5618C36.0724 89.4969 32.6823 87.0359 28.8618 85.6713C25.1711 84.3814 21.194 84.1418 17.3747 84.9792C15.918 88.4563 15.4947 92.279 16.1554 95.99C16.8161 99.7011 18.5329 103.144 21.1006 105.906C23.6682 108.669 26.9781 110.634 30.6345 111.568C34.2909 112.501 38.1391 112.363 41.7192 111.171C45.7616 112.652 50.1783 112.774 54.2961 111.516C57.1665 112.149 60.1427 112.132 63.0053 111.464C65.868 110.797 68.5442 109.496 70.8367 107.658C73.1292 105.82 74.9797 103.492 76.2517 100.845C77.5237 98.1983 78.1849 95.3001 78.1865 92.3641C78.1865 91.9283 78.1707 91.4965 78.143 91.0666C78.3459 90.3866 78.5114 89.6961 78.6386 88.998Z" fill="black"/>
</g>
<path opacity="0.1" d="M108 157.578C167.647 157.578 216 148.794 216 137.958C216 127.121 167.647 118.337 108 118.337C48.3532 118.337 0 127.121 0 137.958C0 148.794 48.3532 157.578 108 157.578Z" fill="#5C7A77"/>
<path d="M143.476 140.219C143.621 139.626 143.91 139.078 144.316 138.621C144.722 138.165 145.234 137.815 145.806 137.601C146.379 137.387 146.995 137.316 147.601 137.394C148.208 137.473 148.786 137.698 149.285 138.05L149.439 138.163C152.742 140.635 150.781 145.171 149.439 145.273C148.096 145.376 145.514 145.486 145.514 145.486C145.514 145.486 142.471 144.232 143.476 140.219Z" fill="#192534"/>
<path d="M173.278 137.137V137.961C173.278 137.961 159.852 138.888 158.418 138.888H155.735C155.735 138.888 155.696 138.93 155.631 139.005C155.52 139.129 155.332 139.348 155.125 139.62C154.703 140.168 154.199 140.933 154.083 141.568C153.885 142.702 153.155 143.114 153.155 143.114L150.471 142.394L147.883 139.302L147.506 138.94L146.432 137.916L145.514 137.039L145.559 136.546V136.471C145.779 135.412 146.059 134.366 146.4 133.339C146.4 133.312 146.418 133.282 146.428 133.254C147.172 131.022 148.414 128.311 150.203 127.504C150.339 127.443 150.481 127.384 150.633 127.331L150.815 127.268C154.246 126.12 160.73 126.575 160.73 126.575C160.73 126.575 165.682 128.019 166.097 128.638C166.511 129.257 171.205 134.357 171.205 134.357C171.617 134.667 171.996 135.018 172.338 135.404C172.778 135.891 173.187 136.504 173.278 137.137Z" fill="#5C7A77"/>
<path opacity="0.1" d="M145.105 143.94C145.903 143.94 146.55 142.925 146.55 141.673C146.55 140.42 145.903 139.405 145.105 139.405C144.307 139.405 143.66 140.42 143.66 141.673C143.66 142.925 144.307 143.94 145.105 143.94Z" fill="white"/>
<path opacity="0.1" d="M151.091 128.273C151.091 128.273 149.907 130.087 148.655 132.414C148.654 132.42 148.654 132.426 148.655 132.432C148.321 133.051 147.982 133.704 147.658 134.373L147.644 134.404C147.644 134.404 146.959 133.862 146.42 133.333C146.42 133.306 146.438 133.276 146.448 133.249C147.192 131.016 148.434 128.305 150.223 127.498C150.359 127.437 150.501 127.378 150.653 127.325L151.091 128.273Z" fill="black"/>
<path opacity="0.1" d="M147.583 134.355C147.583 134.355 154.91 136.524 156.353 135.591C156.353 135.591 156.87 128.995 153.465 128.583C153.465 128.583 151.504 128.066 151.095 128.386C150.687 128.705 147.583 134.355 147.583 134.355Z" fill="white"/>
<path opacity="0.1" d="M157.076 129.51C157.076 129.51 158.521 134.972 159.554 135.077C160.586 135.181 171.005 134.972 170.595 134.25C170.184 133.529 165.641 128.893 165.641 128.893L157.076 129.51Z" fill="white"/>
<path d="M155.303 139.393C155.303 139.393 157.178 136.93 160.482 139.405C163.785 141.88 161.822 146.413 160.482 146.516C159.141 146.618 156.57 146.723 156.57 146.723C156.57 146.723 152.497 145.051 155.303 139.393Z" fill="#192534"/>
<path d="M174.784 140.02C174.647 139.631 174.43 139.274 174.148 138.973C173.865 138.672 173.523 138.432 173.144 138.269C172.764 138.107 172.354 138.024 171.941 138.028C171.528 138.031 171.12 138.12 170.743 138.289C170.374 138.463 170.024 138.675 169.7 138.922C166.76 141.123 168.516 145.159 169.7 145.252C170.129 145.283 170.699 145.317 171.254 145.346C171.822 145.377 172.389 145.275 172.911 145.049C173.433 144.823 173.895 144.479 174.262 144.044C174.628 143.61 174.888 143.096 175.022 142.544C175.156 141.992 175.16 141.416 175.033 140.862C174.966 140.577 174.883 140.296 174.784 140.02Z" fill="#192534"/>
<path opacity="0.1" d="M156.148 145.177C156.946 145.177 157.593 144.162 157.593 142.909C157.593 141.657 156.946 140.641 156.148 140.641C155.35 140.641 154.703 141.657 154.703 142.909C154.703 144.162 155.35 145.177 156.148 145.177Z" fill="white"/>
<path opacity="0.1" d="M160.172 138.581C160.172 138.581 159.974 135.591 163.165 136.828C166.356 138.064 164.3 139.405 164.3 139.405L160.172 138.581Z" fill="white"/>
<path opacity="0.1" d="M173.278 137.137V137.549L172.763 137.747L171.71 137.549C171.71 137.549 171.485 135.861 172.348 135.38C172.778 135.891 173.187 136.504 173.278 137.137Z" fill="white"/>
<path opacity="0.1" d="M173.278 137.157V137.961C173.278 137.961 159.852 138.888 158.418 138.888H158.407C157.664 138.494 156.922 138.318 156.298 138.581C156.108 138.659 155.929 138.763 155.767 138.888C155.719 138.926 155.674 138.965 155.631 139.005C155.434 139.185 155.264 139.392 155.125 139.62C154.201 141.113 154.398 143.424 154.398 143.424C151.715 144.248 148.929 142.085 148.929 142.085C148.424 140.57 147.952 139.582 147.52 138.93C147.125 138.338 146.765 138.048 146.446 137.906L145.514 137.039L145.559 136.546L153.048 141.984C153.048 141.984 153.771 137.346 155.417 137.656C157.064 137.965 160.371 137.965 160.371 137.965L173.278 137.157Z" fill="black"/>
<path d="M145.105 136.518C145.105 136.518 144.485 138.064 145.105 138.169C145.725 138.273 147.117 136.985 148.924 142.394C148.924 142.394 151.709 144.564 154.393 143.733C154.393 143.733 154.073 139.817 156.298 138.888C158.523 137.96 162.235 142.6 162.235 142.6V143.631L171.007 142.702C171.007 142.702 173.69 140.641 173.588 137.447L160.379 138.271C160.379 138.271 157.076 138.271 155.425 137.962C153.775 137.652 153.056 142.3 153.056 142.3L145.105 136.518Z" fill="#5C7A77"/>
<path d="M107.957 108.329H107.955C104.906 108.329 102.434 110.798 102.434 113.843V113.845C102.434 116.89 104.906 119.358 107.955 119.358H107.957C111.005 119.358 113.477 116.89 113.477 113.845V113.843C113.477 110.798 111.005 108.329 107.957 108.329Z" fill="#192534"/>
<path d="M105.064 128.035C105.804 127.386 106.557 126.725 107.09 125.899C107.579 125.142 107.868 124.276 108.138 123.416C108.911 120.959 109.576 118.471 110.134 115.953C107.096 115.489 104.827 112.809 101.856 112.022C101.785 112.003 99.512 125.641 99.3462 126.887C99.21 127.916 98.0332 132.832 99.3738 132.86C100.091 132.876 101.587 131.085 102.116 130.614L105.064 128.035Z" fill="#3F3D56"/>
<path opacity="0.1" d="M105.064 128.035C105.804 127.386 106.557 126.725 107.09 125.899C107.579 125.142 107.868 124.276 108.138 123.416C108.911 120.959 109.576 118.471 110.134 115.953C107.096 115.489 104.827 112.809 101.856 112.022C101.785 112.003 99.512 125.641 99.3462 126.887C99.21 127.916 98.0332 132.832 99.3738 132.86C100.091 132.876 101.587 131.085 102.116 130.614L105.064 128.035Z" fill="black"/>
<path d="M67.5128 93.6242C67.1772 93.6755 66.8218 93.7011 66.5454 93.8963C66.1505 94.1724 66.0498 94.6851 65.8622 95.1308C65.6159 95.7028 65.1987 96.1849 64.6677 96.5111C64.2156 96.7872 63.6647 96.9726 63.3942 97.4261C63.2414 97.7316 63.1687 98.0709 63.1829 98.4121C63.1473 99.4224 63.1929 100.434 63.3192 101.437C63.3824 101.94 63.4653 102.453 63.3606 102.948C63.2402 103.525 62.8769 104.016 62.5314 104.496C61.7021 105.641 60.8907 106.899 60.8235 108.311C60.79 109.021 60.9479 109.749 60.7682 110.437C60.4504 111.658 59.1552 112.454 58.9024 113.689C58.8274 114.054 58.8471 114.44 58.705 114.781C58.4562 115.373 57.7711 115.696 57.5954 116.306C57.4631 116.763 57.6566 117.246 57.6704 117.721C57.6901 118.418 57.3249 119.06 56.9734 119.66L54.9181 123.15C54.2507 124.282 53.5676 125.465 53.455 126.775C53.3544 127.936 53.7157 129.086 54.1125 130.182C54.9951 132.618 56.3061 135.197 58.7247 136.133C60.1483 136.686 61.7337 136.567 63.256 136.441C65.341 136.27 67.4398 136.094 69.4517 135.524C70.4488 135.242 71.4261 134.866 72.433 134.664C73.1043 134.532 73.7934 134.467 74.441 134.252C75.1408 134.001 75.76 133.566 76.2339 132.994C76.7077 132.421 77.0186 131.732 77.1341 130.999C77.9949 131.338 78.7926 130.21 78.6702 129.295C78.5478 128.38 77.9318 127.605 77.683 126.717C77.3276 125.493 77.683 124.164 78.2753 123.036C78.8676 121.908 79.685 120.91 80.3307 119.812C81.05 118.582 81.5497 117.237 81.8075 115.836C82.153 113.945 82.0484 112.003 81.9418 110.084L81.535 102.75C81.46 101.407 81.3751 100.021 80.7828 98.8065C80.1332 97.4833 78.9486 96.5131 77.7659 95.6316C76.0206 94.3056 74.1904 93.0948 72.2869 92.0072C71.0589 91.321 71.1457 91.5872 70.1684 92.4016C69.4114 93.0433 68.4931 93.4661 67.5128 93.6242Z" fill="#3F3D56"/>
<path d="M84.1097 114.028C82.7138 115.128 81.3001 116.244 80.226 117.66C78.9287 119.382 78.1925 121.46 78.1174 123.614C78.1049 124.621 78.1755 125.629 78.3286 126.625C78.5399 128.252 78.921 130.064 80.2932 130.963C81.158 131.529 82.3466 131.671 82.9369 132.519C83.1225 132.785 83.2311 133.111 83.4483 133.345C83.8432 133.771 84.4592 133.864 85.0278 133.895C85.8775 133.943 86.7297 133.917 87.5748 133.816C88.5403 133.7 89.5215 133.489 90.4772 133.671C92.337 134.02 93.7251 135.773 95.6106 136.007C97.1763 136.204 98.6433 135.295 99.9543 134.43C101.307 133.536 102.718 132.58 103.451 131.135C104.164 129.731 104.124 128.078 104.069 126.503C104.008 124.753 103.945 122.983 103.477 121.295C103.331 120.853 103.22 120.401 103.143 119.942C103.003 118.759 103.538 117.595 103.933 116.463C104.547 114.742 104.815 112.62 103.595 111.259C103.08 110.684 102.363 110.329 101.637 110.076C98.4281 108.925 94.886 109.362 91.5947 109.879C88.4534 110.354 86.5738 112.09 84.1097 114.028Z" fill="#3F3D56"/>
<path d="M111.317 107.213C110.045 109.12 108.77 111.04 107.852 113.129C107.226 114.644 106.698 116.199 106.272 117.783C105.005 122.158 103.747 126.629 101.216 130.417C100.853 130.961 100.45 131.527 100.412 132.18C100.377 132.791 100.669 133.363 100.951 133.907C101.544 135.059 102.164 136.222 103.009 137.212C103.854 138.202 104.865 138.951 105.883 139.717C107.998 141.294 110.348 142.966 112.991 142.848C113.538 142.822 114.123 142.696 114.488 142.288C114.853 141.88 114.905 141.316 114.839 140.791C114.642 139.168 113.418 137.892 112.308 136.69C111.199 135.487 110.083 134.081 110.172 132.44C110.241 131.085 111.129 129.93 111.98 128.873C112.954 127.662 113.929 126.453 114.847 125.201C118.818 119.788 121.685 113.634 123.957 107.317C124.915 104.651 125.785 101.851 125.487 99.0352C123.315 98.5028 118.972 96.7241 117.138 98.56C116.026 99.6722 115.24 101.321 114.373 102.632L111.317 107.213Z" fill="#FBBEBE"/>
<path d="M129.655 88.6983C128.279 91.0953 127.203 93.6515 126.449 96.31C126.265 96.9529 126.101 97.6312 126.242 98.2819C126.394 98.98 126.869 99.5539 127.229 100.169C127.588 100.784 127.841 101.563 127.515 102.198C125.975 102.319 124.449 101.898 122.96 101.482L118.293 100.181C117.906 100.107 117.543 99.9387 117.236 99.6919C116.695 99.1811 116.737 98.3234 116.841 97.5898C117.756 91.5832 120.691 86.046 121.791 80.073C121.951 79.2112 122.119 78.2568 122.806 77.7066C124.78 76.1488 129.251 77.468 130.273 79.7239C131.416 82.2283 130.949 86.4483 129.655 88.6983Z" fill="#5C7A77"/>
<path d="M104.669 68.1703C104.494 68.261 104.296 68.3675 104.243 68.5528C104.231 68.6538 104.241 68.756 104.273 68.8525C104.306 68.9489 104.358 69.0371 104.428 69.1109L106.421 71.9111C108.385 74.6718 110.354 77.4503 112.626 79.9684C114.342 81.8683 116.22 83.6142 118.241 85.1862C118.81 85.6279 119.416 86.0874 119.694 86.7519C118.453 83.0798 118.673 79.0713 120.31 75.5572C120.962 74.1768 121.823 72.897 122.5 71.5246C122.564 71.4491 122.607 71.3586 122.626 71.2615C122.644 71.1645 122.638 71.0644 122.606 70.9708C122.574 70.8772 122.519 70.7933 122.446 70.7272C122.372 70.6612 122.283 70.6152 122.186 70.5938C120.461 69.7064 118.573 69.1701 116.855 68.2669C115.507 67.557 114.289 66.6341 113.078 65.7251C111.998 64.9146 110.561 63.483 109.228 63.1418C107.789 62.7711 107.846 64.0824 107.382 65.1769C106.849 66.456 105.891 67.5129 104.669 68.1703Z" fill="#FBBEBE"/>
<path opacity="0.1" d="M104.669 68.1703C104.494 68.261 104.296 68.3675 104.243 68.5528C104.231 68.6538 104.241 68.756 104.273 68.8525C104.306 68.9489 104.358 69.0371 104.428 69.1109L106.421 71.9111C108.385 74.6718 110.354 77.4503 112.626 79.9684C114.342 81.8683 116.22 83.6142 118.241 85.1862C118.81 85.6279 119.416 86.0874 119.694 86.7519C118.453 83.0798 118.673 79.0713 120.31 75.5572C120.962 74.1768 121.823 72.897 122.5 71.5246C122.564 71.4491 122.607 71.3586 122.626 71.2615C122.644 71.1645 122.638 71.0644 122.606 70.9708C122.574 70.8772 122.519 70.7933 122.446 70.7272C122.372 70.6612 122.283 70.6152 122.186 70.5938C120.461 69.7064 118.573 69.1701 116.855 68.2669C115.507 67.557 114.289 66.6341 113.078 65.7251C111.998 64.9146 110.561 63.483 109.228 63.1418C107.789 62.7711 107.846 64.0824 107.382 65.1769C106.849 66.456 105.891 67.5129 104.669 68.1703Z" fill="black"/>
<path d="M116.885 79.3295C115.982 78.312 114.764 77.6396 113.696 76.7956C112.16 75.5809 110.946 74.0151 109.773 72.4474C107.621 69.5625 105.451 66.0287 106.523 62.5877C105.384 62.4773 104.401 63.412 103.864 64.4196C103.327 65.4273 103.05 66.575 102.381 67.4998C101.364 68.9058 99.6344 69.5605 98.0233 70.2033C94.4818 71.6188 91.0603 73.3168 87.7919 75.2811C86.4789 76.0699 85.1719 76.9159 84.1689 78.0714C83.0948 79.3039 82.4215 80.8322 81.5094 82.1829C79.7324 84.8392 77.0314 86.8328 74.0343 87.9607C73.0471 88.3354 71.9888 88.6273 71.1062 89.2228C69.2147 90.4986 68.4269 93.0425 68.8751 95.2786C69.3233 97.5148 70.8495 99.4198 72.6838 100.773C74.518 102.125 76.6069 102.924 78.7235 103.713C80.4978 104.363 82.2833 104.984 84.08 105.574C85.402 106.031 86.7537 106.397 88.1256 106.671C90.6509 107.134 93.2472 107.02 95.8001 107.302C98.1339 107.558 100.426 108.148 102.77 108.311C105.113 108.475 107.595 108.163 109.504 106.801C111.023 105.718 112.034 104.083 112.968 102.462C115.392 98.283 117.557 93.959 119.452 89.5146C120.01 88.1994 125.195 80.7493 123.904 79.787C117.402 74.9419 119.56 82.6404 118.94 82.0488C118.111 81.2561 117.635 80.1755 116.885 79.3295Z" fill="#5C7A77"/>
<path d="M108.831 74.8729C107.435 72.0688 106.492 69.0675 105.554 66.082C105.295 65.2538 105.034 64.3585 105.313 63.5382C105.649 62.5522 106.723 61.7102 106.407 60.7222C103.895 61.511 100.979 62.7474 100.483 65.3326C100.375 65.8966 100.395 66.4981 100.132 67.0068C99.6207 68.0046 98.3176 68.2176 97.2099 68.3872C93.9877 68.9019 90.7852 70.1994 88.5778 72.5993C88.2066 72.9937 87.8572 73.4413 87.3932 73.7371C87.0575 73.9346 86.7005 74.0934 86.329 74.2104C84.169 74.9853 81.9478 75.9516 80.5578 77.7756C79.8411 78.7143 79.383 79.8403 78.5834 80.7119C77.5014 81.895 75.9081 82.4866 74.7372 83.589C73.9475 84.3225 73.3848 85.2533 72.8635 86.1939C70.8575 89.8144 69.3866 94.06 70.4508 98.0611C71.0056 100.153 72.2278 102.017 72.8852 104.079C73.7915 106.889 73.7026 110.094 75.4026 112.51C76.4747 114.028 78.1332 115.032 79.8312 115.789C83.6094 117.468 87.7602 118.135 91.8751 117.725C93.4009 117.548 94.9166 117.293 96.4162 116.96C99.9958 116.223 103.613 115.42 106.865 113.752C112.411 110.906 116.401 105.821 120.212 100.891C120.936 99.9522 121.667 99.0056 122.186 97.9329C122.694 96.9095 123 95.8012 123.341 94.7127C124.496 91.0429 126.121 87.3889 125.969 83.5475C125.975 83.0875 125.884 82.6313 125.703 82.2086C125.549 81.8931 125.308 81.617 125.171 81.2995C124.931 80.7316 125.039 80.0749 124.869 79.4814C124.397 77.8249 122.218 77.5094 120.492 77.5232L119.939 87.243C119.854 88.7022 119.698 90.3212 118.611 91.2993C118.145 91.6992 117.564 91.9406 116.952 91.9884C116.34 92.0363 115.729 91.8881 115.207 91.5655C114.046 90.8142 113.882 89.5028 113.89 88.2467C113.902 86.6691 113.773 85.2237 113.27 83.7112C112.227 80.5738 110.296 77.821 108.831 74.8729Z" fill="#192534"/>
<path d="M109.518 102.571C116.393 106.051 123.308 109.558 129.46 114.192C130.881 115.26 132.264 116.392 133.766 117.347C138.072 120.08 143.415 121.411 146.738 125.276C147.437 126.086 148.029 126.997 148.835 127.699C149.534 128.273 150.315 128.738 151.153 129.08C153.822 130.257 156.713 130.849 159.631 130.817C160.395 130.807 161.181 130.75 161.868 130.423C163.718 129.527 164.138 127.13 164.326 125.085C164.389 124.393 164.403 123.576 163.858 123.146C163.564 122.916 163.175 122.856 162.806 122.799C156.801 121.853 151.261 118.966 146.244 115.536C141.227 112.107 136.629 108.104 131.681 104.576C129.942 103.336 128.161 102.155 126.38 100.974L120.616 97.152C117.568 95.1307 114.358 93.0484 110.717 92.6678C110.51 92.6319 110.297 92.6461 110.097 92.7092C109.777 92.8334 109.599 93.1647 109.443 93.4684C108.375 95.5468 107.074 97.434 105.765 99.3586C105.064 100.388 104.985 100.654 106.193 101.204C107.281 101.701 108.434 102.023 109.518 102.571Z" fill="#FBBEBE"/>
<path d="M123.027 160C123.106 160 123.181 159.969 123.237 159.913C123.292 159.858 123.323 159.783 123.323 159.704C123.323 159.626 123.292 159.551 123.237 159.495C123.181 159.44 123.106 159.408 123.027 159.408C122.949 159.408 122.873 159.44 122.818 159.495C122.762 159.551 122.731 159.626 122.731 159.704C122.731 159.783 122.762 159.858 122.818 159.913C122.873 159.969 122.949 160 123.027 160Z" fill="black"/>
<path d="M125.187 81.4809C135.617 81.4809 144.072 73.0363 144.072 62.6192C144.072 52.2022 135.617 43.7576 125.187 43.7576C114.757 43.7576 106.302 52.2022 106.302 62.6192C106.302 73.0363 114.757 81.4809 125.187 81.4809Z" fill="#FBBEBE"/>
<path d="M110.344 69.9746C110.679 68.2807 112.626 67.4249 114.35 67.3105C116.094 67.2169 117.832 67.5839 119.389 68.3746C120.946 69.1652 122.267 70.3517 123.219 71.8144C123.618 70.7571 123.887 69.6553 124.02 68.5331L127.179 68.7678C127.532 68.8223 127.893 68.7898 128.23 68.6731C128.636 68.4917 128.887 68.0815 129.098 67.6871C130.481 65.1098 131.405 61.9468 133.999 60.5881V64.1376C134.709 63.9996 135.378 63.7004 135.955 63.2631C136.531 62.8258 136.999 62.2621 137.322 61.6155C137.5 62.5981 137.783 63.5587 138.167 64.4808C138.23 64.6346 138.319 64.8042 138.479 64.8436C138.557 64.8493 138.635 64.8383 138.709 64.8115C138.782 64.7846 138.849 64.7425 138.905 64.6878C140.115 63.7709 141.21 62.7115 142.165 61.5327L145.916 68.0283C148.084 62.562 148.202 56.4979 146.25 50.9514C144.298 45.4049 140.406 40.7489 135.29 37.8397C134.423 37.3407 133.518 36.9101 132.583 36.552C130.141 35.6331 127.509 35.3393 124.905 35.1618C121.203 34.9094 117.295 34.9193 114.046 36.6921C112.298 37.6445 110.847 39.0485 109.445 40.4605C107.55 42.3654 105.654 44.3787 104.645 46.8693C103.949 48.5888 103.71 50.4523 103.498 52.2941C103.37 53.4083 103.252 54.5599 103.569 55.6346C103.791 56.378 104.207 57.0465 104.488 57.7702C104.953 58.9731 105.027 60.2864 105.206 61.5643C105.605 64.3882 106.528 67.1128 107.929 69.598C108.225 70.1245 108.604 70.6845 109.195 70.8186C109.785 70.9527 110.494 70.302 110.182 69.7892" fill="#192534"/>
<path d="M110.344 69.9746C110.679 68.2807 112.626 67.4249 114.35 67.3105C116.094 67.2169 117.832 67.5839 119.389 68.3746C120.946 69.1652 122.267 70.3517 123.219 71.8144C123.618 70.7571 123.887 69.6553 124.02 68.5331L127.179 68.7678C127.532 68.8223 127.893 68.7898 128.23 68.6731C128.636 68.4917 128.887 68.0815 129.098 67.6872C130.481 65.1098 131.405 61.9468 133.999 60.5881V64.1376C134.709 63.9996 135.378 63.7004 135.955 63.2631C136.531 62.8258 136.998 62.2621 137.322 61.6155C137.5 62.5981 137.783 63.5587 138.167 64.4808C138.23 64.6346 138.319 64.8042 138.479 64.8436C138.557 64.8493 138.635 64.8383 138.709 64.8115C138.782 64.7846 138.849 64.7425 138.905 64.6878C140.115 63.7709 141.21 62.7115 142.165 61.5327L145.916 68.0283C148.084 62.562 148.202 56.4979 146.25 50.9514C144.298 45.4049 140.406 40.7489 135.29 37.8397C134.423 37.3407 133.518 36.9101 132.583 36.552C130.141 35.6331 127.509 35.3393 124.905 35.1618C121.203 34.9094 117.295 34.9193 114.046 36.6921C112.298 37.6445 110.847 39.0485 109.445 40.4605C107.55 42.3654 105.654 44.3787 104.645 46.8693C103.949 48.5888 103.71 50.4523 103.498 52.2941C103.37 53.4083 103.252 54.5599 103.569 55.6346C103.791 56.378 104.207 57.0465 104.488 57.7702C104.953 58.9731 105.027 60.2864 105.206 61.5643C105.605 64.3882 106.528 67.1128 107.929 69.598C108.225 70.1245 108.604 70.6845 109.195 70.8186C109.785 70.9527 110.494 70.302 110.182 69.7892" stroke="black" stroke-miterlimit="10"/>
<path d="M88.6686 88.0771C89.4307 90.1693 91.3459 91.5892 93.1623 92.8828L97.9009 96.2587C99.1606 97.156 100.454 98.0867 101.273 99.3961C100.075 99.8496 99.5278 101.388 99.9207 102.606C100.314 103.825 101.441 104.699 102.669 105.093C103.897 105.487 105.2 105.474 106.482 105.401C107.953 105.32 109.493 105.142 110.707 104.308L108.04 102.668C107.337 102.232 106.529 101.538 106.786 100.755L109.599 100.727C109.895 100.727 110.217 100.713 110.452 100.53C110.687 100.347 110.768 100.065 110.867 99.7964C111.285 98.712 111.999 97.7663 112.928 97.0664C113.857 96.3666 114.964 95.9406 116.123 95.8367C116.818 95.7855 117.617 95.815 118.097 95.2984C118.409 94.9553 118.476 94.4623 118.531 94.0028C118.636 93.1273 118.739 92.2281 118.565 91.3703C118.391 90.5125 117.89 89.6606 117.084 89.2997C116.492 89.0315 115.807 89.0572 115.159 88.9704C112.18 88.576 110.115 85.8784 108.515 83.3366C106.916 80.7947 105.2 77.9827 102.349 77.0362C101.459 76.77 100.536 76.6286 99.6068 76.6161C97.5515 76.5314 95.4349 76.699 93.5632 77.5508C90.0744 79.1383 87.3102 84.3541 88.6686 88.0771Z" fill="#5C7A77"/>
<path opacity="0.1" d="M145.934 64.5182L142.183 58.0226C141.228 59.2019 140.133 60.2613 138.923 61.1777C138.868 61.2331 138.801 61.2758 138.727 61.303C138.653 61.3302 138.575 61.3413 138.497 61.3355C138.337 61.2961 138.248 61.1265 138.185 60.9727C137.801 60.0499 137.518 59.0886 137.34 58.1055C137.017 58.7525 136.549 59.3166 135.973 59.7543C135.397 60.192 134.727 60.4914 134.017 60.6295V57.08C131.422 58.4427 130.506 61.6057 129.116 64.1791C128.905 64.5734 128.654 64.9777 128.248 65.165C127.91 65.2817 127.55 65.3142 127.197 65.2597L124.038 65.025C123.905 66.1472 123.636 67.249 123.236 68.3063C122.285 66.8436 120.964 65.6571 119.407 64.8665C117.85 64.0758 116.112 63.7088 114.367 63.8024C112.644 63.9168 110.697 64.7726 110.361 66.4665L110.194 66.2811C110.511 66.7958 109.799 67.4466 109.206 67.3125C108.614 67.1784 108.237 66.6184 107.941 66.0918C106.544 63.6039 105.624 60.8773 105.23 58.0522C105.05 56.7744 104.977 55.4611 104.511 54.2582C104.231 53.5345 103.814 52.866 103.593 52.1226C103.593 52.0969 103.579 52.0733 103.573 52.0476C103.556 52.1955 103.538 52.3434 103.522 52.4913C103.394 53.6074 103.275 54.7571 103.593 55.8436C103.814 56.587 104.231 57.2555 104.511 57.9773C104.977 59.1821 105.05 60.4935 105.23 61.7733C105.624 64.5978 106.543 67.3239 107.941 69.8109C108.237 70.3374 108.616 70.8995 109.206 71.0335C109.797 71.1676 110.505 70.5169 110.194 70.0022L110.361 70.1856C110.697 68.4937 112.644 67.6359 114.367 67.5235C116.112 67.429 117.85 67.7955 119.407 68.5858C120.964 69.3762 122.285 70.5626 123.236 72.0254C123.636 70.9689 123.905 69.8676 124.038 68.7461L127.197 68.9788C127.55 69.0339 127.91 69.0014 128.248 68.8841C128.654 68.7027 128.905 68.2925 129.116 67.8981C130.498 65.3188 131.422 62.1578 134.017 60.7991V64.3486C134.727 64.2105 135.397 63.9111 135.973 63.4734C136.549 63.0357 137.017 62.4716 137.34 61.8245C137.518 62.8077 137.801 63.7689 138.185 64.6918C138.248 64.8436 138.337 65.0152 138.497 65.0526C138.575 65.0592 138.653 65.0487 138.727 65.0218C138.801 64.9949 138.868 64.9522 138.923 64.8968C140.133 63.9804 141.228 62.921 142.183 61.7417L145.934 68.2373C147.287 64.7905 147.844 61.0832 147.563 57.3916C147.382 59.8354 146.833 62.2379 145.934 64.5182Z" fill="black"/>
</g>
<defs>
<clipPath id="clip0_13_289">
<rect width="216" height="160" fill="white"/>
</clipPath>
</defs>
</svg>
