<svg width="206" height="116" viewBox="0 0 206 116" fill="none" xmlns="http://www.w3.org/2000/svg">
<g clip-path="url(#clip0_28_619)">
<path d="M190.206 92.4068C189.976 92.9046 189.747 93.3958 189.519 93.8804C189.163 94.6331 188.812 95.3712 188.465 96.0947C188.31 96.4153 188.156 96.7299 188.006 97.0446C186.304 100.543 184.716 103.638 183.367 106.183C182.143 108.49 180.326 110.423 178.105 111.78C175.884 113.137 173.341 113.867 170.743 113.895L140.743 114.224H140.427L137.855 114.251L135.655 114.275L128.915 114.353H128.642L125.208 114.391H125.103L103.936 114.622L85.0413 114.821L82.8435 114.845L69.1935 114.994H69.1717L60.319 115.09H60.2241L32.2317 115.394L23.8577 115.486C23.1447 115.494 22.4319 115.458 21.7232 115.379C21.4819 115.351 21.2405 115.319 21.0011 115.281C17.0957 114.674 13.5146 112.739 10.8547 109.797C7.25224 105.79 4.63105 101.151 2.8704 96.0947C2.61586 95.3659 2.37847 94.6278 2.15823 93.8804C-3.93679 73.1329 3.49355 46.3777 16.8666 28.4779C17.4271 27.7291 17.9968 26.999 18.5758 26.2874L18.5896 26.2715C22.7024 21.1897 27.3138 16.9442 32.2258 13.9254C40.9301 8.56679 50.5741 7.05738 60.0599 11.5557C68.0857 15.3631 75.5793 17.1533 82.8435 17.6392C83.5774 17.687 84.3113 17.7228 85.0413 17.7447C101.704 18.2724 117.321 12.2288 135.659 8.32784C136.389 8.17251 137.121 8.01918 137.859 7.87382C150.941 5.25326 165.454 3.87129 182.712 6.77661C184.505 7.07145 186.274 7.49739 188.006 8.05104C188.767 8.29797 189.5 8.56347 190.206 8.84757C198.443 12.2208 202.936 18.4536 204.845 26.2635C205.025 26.9884 205.182 27.7258 205.314 28.4759C208.698 47.2619 198.785 73.9096 190.206 92.4068Z" fill="#F2F2F2"/>
<path opacity="0.1" d="M98.3233 93.8804C98.2436 94.6252 98.1201 95.3646 97.9534 96.0947H116.49V93.8804H98.3233ZM82.8435 106.388L85.0413 106.37V100.9C84.2876 100.866 83.5537 100.832 82.8435 100.796V106.388ZM36.7659 93.8804V96.0947H76.0343V93.8804H36.7659ZM204.855 26.2655H190.215V8.84956C189.51 8.56015 188.777 8.29465 188.016 8.05303V26.2735H137.859V7.86784C137.121 8.01321 136.389 8.16654 135.659 8.32186V26.2655H85.0413V17.7388C84.3113 17.7169 83.5774 17.681 82.8435 17.6332V26.2655H32.2258V13.9194C27.3138 16.9382 22.7024 21.1837 18.5896 26.2655H18.5758V26.2815C17.9955 26.9983 17.4258 27.7285 16.8666 28.4719H18.5758V93.8804H2.15625C2.37518 94.6278 2.61257 95.3659 2.86842 96.0947H18.5738V114.737C19.364 114.981 20.1706 115.166 20.9873 115.293C21.2267 115.331 21.468 115.363 21.7094 115.39C22.418 115.47 23.1309 115.506 23.8439 115.498L32.2179 115.406V96.0907H82.8435V114.851L85.0413 114.827V96.0947H135.659V114.277L137.859 114.253V96.0947H188.006V97.0446C188.156 96.7299 188.31 96.4153 188.465 96.0947C188.812 95.3725 189.163 94.6344 189.519 93.8804C189.747 93.3958 189.976 92.9046 190.206 92.4068V28.4858H205.323C205.19 27.7305 205.034 26.9904 204.855 26.2655ZM32.2258 93.8804V28.4779H82.8435V93.8804H32.2258ZM85.0453 93.8804V28.4779H135.659V93.8804H85.0453ZM188.01 93.8804H137.859V28.4779H188.006L188.01 93.8804Z" fill="black"/>
<path d="M165.131 70.8091C162.39 65.7137 158.505 61.3327 153.786 58.0149C153.449 57.7806 153.059 57.6329 152.652 57.5848C153.208 53.9049 153.091 49.8386 151.028 46.772C146.132 39.4958 121.186 47.005 121.186 47.005C103.7 40.9036 88.5449 48.6478 88.5449 48.6478C88.5449 48.6478 69.1935 45.5971 60.3349 47.9449C56.1568 49.0521 55.142 53.3413 55.2369 57.5669H55.2231C54.8526 57.5662 54.4868 57.6497 54.1529 57.811C53.8189 57.9724 53.5255 58.2075 53.2943 58.4988C50.9382 61.4619 43.8204 70.588 44.0143 72.3504C44.2477 74.4631 51.9411 101.919 51.593 115.179L159.07 113.985C159.07 113.985 160.85 87.3011 165.303 72.6948C165.496 72.0681 165.434 71.3899 165.131 70.8091Z" fill="#3F3D56"/>
<path opacity="0.1" d="M52.9935 72.4698L57.4228 63.5508L61.1519 80.917L61.1954 88.9778L52.9935 72.4698Z" fill="black"/>
<path opacity="0.1" d="M154.64 72.4698L150.211 63.5508L145.074 80.0169L146.063 89.376L154.64 72.4698Z" fill="black"/>
<path d="M60.8275 80.443L145.082 79.9791L146.015 89.3661L61.1519 89.1311L60.8275 80.443Z" fill="#3F3D56"/>
<path opacity="0.1" d="M60.8275 80.443L145.082 79.9791L146.015 89.3661L61.1519 89.1311L60.8275 80.443Z" fill="black"/>
<path opacity="0.1" d="M144.387 88.4521H62.871C61.7271 88.4521 60.7998 89.3855 60.7998 90.537V96.4591C60.7998 97.6106 61.7271 98.544 62.871 98.544H144.387C145.531 98.544 146.458 97.6106 146.458 96.4591V90.537C146.458 89.3855 145.531 88.4521 144.387 88.4521Z" fill="white"/>
<path d="M128.929 54.6914C128.929 54.6914 128.644 54.2932 128.308 54.5082C128.148 54.6138 127.394 55.5696 126.654 56.5414C126.29 57.0173 125.928 57.4972 125.641 57.8795C125.287 58.3495 125.048 58.676 125.048 58.676L124.905 58.9449L124.041 60.5718L123.228 62.1011L123.03 62.8219L125.776 63.7618L128.901 62.9036L128.767 62.3201L128.743 62.2206L128.769 60.8784L128.84 57.0949L128.874 55.3924V55.1933L128.929 54.6914Z" fill="#FFE09C"/>
<path d="M122.642 64.0187C122.642 64.0187 125.609 65.0841 127.131 64.5265C127.131 64.5265 128.446 64.1044 128.965 63.6961C128.965 63.6961 129.517 63.4054 128.767 62.4576C128.767 62.4576 126.846 63.6424 125.028 63.1764L123.21 62.7085L122.642 64.0187Z" fill="#E7C4C3"/>
<path d="M125.952 62.6708C126.415 62.3978 126.604 61.8565 126.374 61.4618C126.144 61.067 125.583 60.9684 125.12 61.2414C124.657 61.5144 124.468 62.0557 124.698 62.4504C124.928 62.8451 125.489 62.9438 125.952 62.6708Z" fill="#FF7F8E"/>
<path d="M127.925 60.2893C128.388 60.0163 128.577 59.475 128.347 59.0803C128.117 58.6855 127.556 58.5869 127.093 58.8599C126.63 59.1329 126.441 59.6742 126.671 60.0689C126.901 60.4636 127.462 60.5623 127.925 60.2893Z" fill="#FF7F8E"/>
<path d="M128.767 60.8784C128.618 60.8158 128.456 60.7899 128.295 60.8027C128.134 60.8155 127.978 60.8667 127.841 60.9521C127.378 61.2249 127.188 61.7666 127.42 62.1608C127.651 62.5551 128.211 62.6547 128.672 62.3819C128.703 62.362 128.735 62.3421 128.765 62.3201L128.741 62.2206L128.767 60.8784Z" fill="#FF7F8E"/>
<path d="M125.41 59.2993C125.355 59.2078 125.281 59.1289 125.194 59.0679C125.107 59.0068 125.008 58.9649 124.903 58.9449L124.039 60.5718C124.19 60.6404 124.356 60.6705 124.522 60.6594C124.687 60.6483 124.847 60.5963 124.988 60.508C125.451 60.2352 125.639 59.6936 125.41 59.2993Z" fill="#FF7F8E"/>
<path d="M127.333 56.9157C127.261 56.8006 127.162 56.7059 127.044 56.6403C126.926 56.5748 126.793 56.5407 126.658 56.5414C126.294 57.0173 125.932 57.4972 125.645 57.8795L125.657 57.9034C125.887 58.3017 126.448 58.3953 126.911 58.1225C127.374 57.8496 127.558 57.31 127.333 56.9157Z" fill="#FF7F8E"/>
<path d="M128.872 55.3904C128.77 55.4162 128.672 55.4564 128.581 55.5099C128.118 55.7827 127.93 56.3243 128.159 56.7186C128.231 56.8342 128.331 56.9294 128.45 56.9949C128.569 57.0605 128.703 57.0942 128.838 57.093L128.872 55.3904Z" fill="#FF7F8E"/>
<path d="M124.264 61.9199L124.106 61.6511C124.343 61.5798 124.562 61.4575 124.747 61.2926C124.759 61.2807 124.769 61.2667 124.779 61.2548C124.977 61.0039 124.935 61.5256 124.935 61.5256C124.935 61.5256 124.448 61.9418 124.264 61.9199Z" fill="#94CC79"/>
<path d="M126.599 61.5037L126.44 61.2329C126.677 61.1612 126.896 61.039 127.081 60.8744C127.081 60.8625 127.103 60.8505 127.113 60.8366C127.311 60.5877 127.269 61.1074 127.269 61.1074C127.269 61.1074 126.783 61.5256 126.599 61.5037Z" fill="#94CC79"/>
<path d="M126.385 60.3886L126.227 60.1178C126.463 60.0467 126.682 59.9251 126.868 59.7613C126.878 59.7474 126.889 59.7354 126.899 59.7235C127.097 59.4726 127.056 59.9923 127.056 59.9923C127.056 59.9923 126.569 60.4065 126.385 60.3886Z" fill="#94CC79"/>
<path d="M126.668 58.3774L126.51 58.1065C126.746 58.0349 126.965 57.9126 127.151 57.7481C127.151 57.7362 127.172 57.7242 127.182 57.7103C127.38 57.4594 127.339 57.9811 127.339 57.9811C127.339 57.9811 126.852 58.3973 126.668 58.3774Z" fill="#94CC79"/>
<path d="M128.007 55.944L127.851 55.6732C128.087 55.6017 128.305 55.4794 128.49 55.3147C128.501 55.303 128.512 55.2904 128.521 55.2769C128.719 55.028 128.68 55.5477 128.68 55.5477C128.68 55.5477 128.191 55.9639 128.007 55.944Z" fill="#94CC79"/>
<path d="M127.857 58.4271L127.699 58.1563C127.935 58.0857 128.154 57.9641 128.34 57.7999C128.34 57.7859 128.361 57.774 128.371 57.762C128.569 57.5111 128.527 58.0309 128.527 58.0309C128.527 58.0309 128.041 58.449 127.857 58.4271Z" fill="#94CC79"/>
<path d="M122.156 63.1764C122.156 63.1764 121.776 64.1721 122.642 64.0128C123.028 63.5628 123.291 63.0202 123.408 62.4376C123.408 62.4376 125.281 58.3057 125.835 57.9273C125.835 57.9273 128.276 54.568 128.539 54.5182C128.539 54.5182 128.624 54.1916 127.772 54.8826C126.919 55.5736 125.052 58.234 125.052 58.234L123.271 61.1552L122.852 62.3201L122.156 63.1764Z" fill="#E7C4C3"/>
<path opacity="0.2" d="M122.156 63.1764C122.156 63.1764 121.776 64.1721 122.642 64.0128C123.028 63.5628 123.291 63.0202 123.408 62.4376C123.408 62.4376 125.281 58.3057 125.835 57.9273C125.835 57.9273 128.276 54.568 128.539 54.5182C128.539 54.5182 128.624 54.1916 127.772 54.8826C126.919 55.5736 125.052 58.234 125.052 58.234L123.271 61.1552L122.852 62.3201L122.156 63.1764Z" fill="white"/>
<path d="M92.7289 83.4021C93.0554 84.4821 93.4573 85.5374 93.9317 86.5603C95.2939 86.2736 96.634 85.8889 97.9416 85.4094C97.9831 85.3954 97.1918 84.354 97.1087 84.2683C96.7865 83.9098 96.4025 83.613 95.9752 83.3922C95.5578 83.209 95.0434 83.3483 94.5904 83.3722C93.9732 83.4041 93.3527 83.4141 92.7289 83.4021Z" fill="#FBBEBE"/>
<path d="M95.9831 85.037C95.3026 84.8219 94.8872 84.1309 94.6102 83.4658C94.3333 82.8007 94.1097 82.0719 93.5835 81.586C93.4836 81.6014 93.389 81.6414 93.3082 81.7026C93.2274 81.7637 93.163 81.8441 93.1206 81.9365C93.0385 82.1231 92.9467 82.3052 92.8456 82.4821C92.628 82.8007 92.2521 82.9561 91.9653 83.2269C91.6784 83.4977 91.5182 83.9099 91.2195 84.1827C90.8436 84.5252 90.3135 84.6108 89.8209 84.7243C89.0579 84.8987 88.3209 85.1732 87.629 85.5408C87.3743 85.6955 87.102 85.8185 86.8179 85.9072C86.5051 85.9686 86.1845 85.9793 85.8683 85.939L83.6922 85.7837C83.4984 85.7587 83.3018 85.7668 83.1106 85.8076C82.8906 85.8884 82.7033 86.0403 82.5781 86.2395C82.4528 86.4387 82.3966 86.6741 82.4182 86.9088C82.4461 87.1427 82.5217 87.3683 82.6401 87.5715C82.7586 87.7747 82.9174 87.9511 83.1067 88.0896C83.4869 88.3617 83.9057 88.5745 84.349 88.7209C86.2473 89.4432 88.2019 90.0054 90.1928 90.4016V90.8357C91.5767 91.5223 93.099 91.8794 94.6419 91.8791C94.7557 91.8872 94.8697 91.8674 94.9742 91.8214C95.117 91.7174 95.2169 91.5644 95.2551 91.3912C95.779 89.8489 96.0847 88.2401 96.1632 86.6121C96.2019 86.2002 96.1705 85.7847 96.0702 85.3835C95.9515 84.9852 96.359 85.1545 95.9812 84.9991" fill="#2F2E41"/>
<path d="M137.788 76.7651C131.325 77.1633 124.929 75.2497 118.468 75.0466C117.664 74.9955 116.856 75.0477 116.064 75.2019C115.234 75.3891 114.458 75.7674 113.691 76.1299C110.219 77.7548 106.63 79.1009 103.044 80.445L98.9248 81.9903C98.1019 82.2989 97.2492 82.6116 96.3729 82.5578C95.9772 82.5339 95.4965 82.4742 95.2769 82.8027C94.6063 83.7984 94.9228 85.27 95.3659 86.3871C95.5084 86.7495 95.7616 87.1438 96.1374 87.1836C96.4085 87.2115 96.6617 87.0542 96.9288 86.9845C97.6785 86.7853 98.4263 87.2911 99.1978 87.3728C100.151 87.4743 101.036 86.9287 101.936 86.5942C103.427 86.0386 105.059 86.0565 106.628 85.7977C109.259 85.3556 111.696 84.1269 113.975 82.7271C114.842 82.1934 115.72 81.6219 116.717 81.4267C117.863 81.2017 119.04 81.4984 120.165 81.825C122.844 82.5876 125.482 83.4916 128.067 84.5332C129.428 85.0828 130.781 85.6702 132.197 86.0506C135.261 86.8615 138.502 86.6711 141.451 85.5069C142.484 85.0947 143.61 84.3679 143.669 83.2448C143.703 82.6036 143.208 82.05 142.878 81.4924C142.668 81.14 142.456 80.7895 142.225 80.451C141.103 78.8062 139.75 76.6476 137.788 76.7651Z" fill="#2F2E41"/>
<path opacity="0.1" d="M137.788 76.7651C131.325 77.1633 124.929 75.2497 118.468 75.0466C117.664 74.9955 116.856 75.0477 116.064 75.2019C115.234 75.3891 114.458 75.7674 113.691 76.1299C110.219 77.7548 106.63 79.1009 103.044 80.445L98.9248 81.9903C98.1019 82.2989 97.2492 82.6116 96.3729 82.5578C95.9772 82.5339 95.4965 82.4742 95.2769 82.8027C94.6063 83.7984 94.9228 85.27 95.3659 86.3871C95.5084 86.7495 95.7616 87.1438 96.1374 87.1836C96.4085 87.2115 96.6617 87.0542 96.9288 86.9845C97.6785 86.7853 98.4263 87.2911 99.1978 87.3728C100.151 87.4743 101.036 86.9287 101.936 86.5942C103.427 86.0386 105.059 86.0565 106.628 85.7977C109.259 85.3556 111.696 84.1269 113.975 82.7271C114.842 82.1934 115.72 81.6219 116.717 81.4267C117.863 81.2017 119.04 81.4984 120.165 81.825C122.844 82.5876 125.482 83.4916 128.067 84.5332C129.428 85.0828 130.781 85.6702 132.197 86.0506C135.261 86.8615 138.502 86.6711 141.451 85.5069C142.484 85.0947 143.61 84.3679 143.669 83.2448C143.703 82.6036 143.208 82.05 142.878 81.4924C142.668 81.14 142.456 80.7895 142.225 80.451C141.103 78.8062 139.75 76.6476 137.788 76.7651Z" fill="black"/>
<path d="M105.136 83.7187C106.147 84.0652 107.167 84.3845 108.199 84.6765C108.775 83.7247 109.853 83.0616 110.098 81.9744C110.108 81.9503 110.113 81.9243 110.113 81.8982C110.113 81.872 110.107 81.8462 110.096 81.8225C110.085 81.7988 110.069 81.7777 110.049 81.7606C110.029 81.7435 110.006 81.7309 109.981 81.7234C109.244 81.3126 108.426 81.0712 107.586 81.0165C106.921 80.9747 106.618 81.6717 106.316 82.1635C106.195 82.3607 105.407 83.8123 105.136 83.7187Z" fill="#FBBEBE"/>
<path d="M106.561 83.0238C106.259 82.9723 105.971 82.8584 105.715 82.6891C105.458 82.5197 105.24 82.2987 105.073 82.0401C104.931 81.7891 104.778 81.4427 104.494 81.4685C104.209 81.4944 104.098 81.8051 104.047 82.0659C103.855 83.0533 103.576 84.0216 103.214 84.9593C102.85 85.899 102.233 86.7181 101.433 87.325C101.057 87.5859 100.642 87.783 100.274 88.0578C99.9436 88.3027 99.6568 88.6134 99.2849 88.8025C99.0418 88.9159 98.7905 89.0104 98.5331 89.0853C98.1556 89.2194 97.7945 89.3964 97.457 89.613C97.1605 89.7856 96.9094 90.0274 96.725 90.3179C96.6318 90.465 96.5773 90.6336 96.5665 90.8078C96.5558 90.9819 96.5892 91.156 96.6637 91.3136C96.7419 91.4423 96.8463 91.5529 96.9701 91.638C97.0939 91.7231 97.2342 91.7809 97.3818 91.8074C97.6764 91.8592 97.977 91.8673 98.274 91.8313C99.451 91.7437 100.628 91.6322 101.805 91.5326C102.303 91.5023 102.797 91.4357 103.285 91.3335C103.544 91.2698 103.795 91.1881 104.052 91.1204C104.493 91.0066 104.944 90.9398 105.398 90.9213C105.531 90.9108 105.664 90.9229 105.793 90.9571C106.066 91.0467 106.258 91.3195 106.541 91.3753C106.722 91.3926 106.904 91.3681 107.073 91.3036C107.92 91.0706 108.812 91.0766 109.689 91.0288C110.084 91.0089 110.527 90.9352 110.705 90.5868C110.927 90.1526 110.559 89.6668 110.415 89.1928C110.341 88.8949 110.3 88.5897 110.292 88.2828C110.225 87.5254 110.004 86.7899 109.643 86.1222C109.344 85.5686 108.935 84.9553 109.145 84.3599C109.216 84.1608 109.358 83.9617 109.342 83.7625C109.275 82.8087 107.097 83.1373 106.561 83.0238Z" fill="#2F2E41"/>
<path d="M128.096 66.3286C126.952 65.8199 126.036 64.9026 125.524 63.7539C125.416 63.5069 125.327 63.2501 125.224 63.0012C124.884 62.1726 124.357 61.4355 123.685 60.8486C123.612 60.769 123.524 60.7061 123.425 60.6642C123.327 60.6223 123.22 60.6023 123.113 60.6056C123.009 60.6373 122.916 60.696 122.843 60.7758C122.769 60.8555 122.717 60.9534 122.694 61.0596C122.634 61.2862 122.62 61.5223 122.65 61.7546C122.708 62.3019 122.802 62.8447 122.931 63.3795L123.244 64.8152C123.282 65.0366 123.349 65.2521 123.441 65.4564C123.576 65.6984 123.753 65.9132 123.966 66.0897C124.252 66.3565 124.543 66.6134 124.838 66.8643C125.249 67.2602 125.784 67.4996 126.351 67.5413C127.633 67.7803 128.939 68.1268 130.023 68.9691C130.009 68.9691 130.023 68.0053 129.999 67.8958C129.95 67.6071 129.91 67.3203 129.724 67.1252C129.299 66.6871 128.609 66.5616 128.096 66.3286Z" fill="#FBBEBE"/>
<path opacity="0.1" d="M128.096 66.3286C126.952 65.8199 126.036 64.9026 125.524 63.7539C125.416 63.5069 125.327 63.2501 125.224 63.0012C124.884 62.1726 124.357 61.4355 123.685 60.8486C123.612 60.769 123.524 60.7061 123.425 60.6642C123.327 60.6223 123.22 60.6023 123.113 60.6056C123.009 60.6373 122.916 60.696 122.843 60.7758C122.769 60.8555 122.717 60.9534 122.694 61.0596C122.634 61.2862 122.62 61.5223 122.65 61.7546C122.708 62.3019 122.802 62.8447 122.931 63.3795L123.244 64.8152C123.282 65.0366 123.349 65.2521 123.441 65.4564C123.576 65.6984 123.753 65.9132 123.966 66.0897C124.252 66.3565 124.543 66.6134 124.838 66.8643C125.249 67.2602 125.784 67.4996 126.351 67.5413C127.633 67.7803 128.939 68.1268 130.023 68.9691C130.009 68.9691 130.023 68.0053 129.999 67.8958C129.95 67.6071 129.91 67.3203 129.724 67.1252C129.299 66.6871 128.609 66.5616 128.096 66.3286Z" fill="black"/>
<path d="M141.258 55.3346C142.126 55.3346 142.83 54.6223 142.83 53.7436C142.83 52.8649 142.126 52.1525 141.258 52.1525C140.389 52.1525 139.685 52.8649 139.685 53.7436C139.685 54.6223 140.389 55.3346 141.258 55.3346Z" fill="#2F2E41"/>
<path d="M140.284 52.7818C139.859 52.734 139.384 52.7001 139.042 52.963C138.86 53.1238 138.715 53.3221 138.617 53.5444C138.265 54.1533 137.99 54.8043 137.799 55.482C137.659 56.0634 137.635 56.6768 137.461 57.2423C137.139 58.3017 136.314 59.1958 136.219 60.301C136.177 60.7948 136.26 61.3743 135.9 61.7128C135.813 61.7871 135.719 61.8538 135.619 61.9119C135.371 62.0796 135.16 62.2981 135 62.5531C134.892 62.7822 134.743 62.9894 134.561 63.1645C134.241 63.4034 133.71 63.3775 133.552 63.7479C133.394 64.1183 133.801 64.5444 133.706 64.9427C133.629 65.2693 133.267 65.4186 133.018 65.6416C132.698 65.9264 132.551 66.3545 132.425 66.7647C131.899 66.8648 131.358 66.8491 130.839 66.7188C130.32 66.5886 129.835 66.3468 129.418 66.01C129.855 67.0973 129.865 68.298 129.884 69.4729C129.884 69.8533 129.884 70.2814 129.608 70.5462C130.86 70.5741 132.08 70.9146 133.301 71.1934C133.835 71.3149 134.415 71.4204 134.911 71.1934C135.192 71.0415 135.442 70.839 135.649 70.596C136.314 69.917 137.01 69.1782 137.172 68.2363C137.263 67.7106 137.172 67.169 137.2 66.6433C137.261 65.9829 137.394 65.3311 137.596 64.6998C137.948 63.3905 138.184 62.0524 138.302 60.7012C138.373 59.8688 139.093 59.1978 139.465 58.451C140.177 57.0452 140.903 55.5796 140.957 54.0005C140.983 53.4787 140.804 52.8395 140.284 52.7818Z" fill="#2F2E41"/>
<path opacity="0.1" d="M140.284 52.7818C139.859 52.734 139.384 52.7001 139.042 52.963C138.86 53.1238 138.715 53.3221 138.617 53.5444C138.265 54.1533 137.99 54.8043 137.799 55.482C137.659 56.0634 137.635 56.6768 137.461 57.2423C137.139 58.3017 136.314 59.1958 136.219 60.301C136.177 60.7948 136.26 61.3743 135.9 61.7128C135.813 61.7871 135.719 61.8538 135.619 61.9119C135.371 62.0796 135.16 62.2981 135 62.5531C134.892 62.7822 134.743 62.9894 134.561 63.1645C134.241 63.4034 133.71 63.3775 133.552 63.7479C133.394 64.1183 133.801 64.5444 133.706 64.9427C133.629 65.2693 133.267 65.4186 133.018 65.6416C132.698 65.9264 132.551 66.3545 132.425 66.7647C131.899 66.8648 131.358 66.8491 130.839 66.7188C130.32 66.5886 129.835 66.3468 129.418 66.01C129.855 67.0973 129.865 68.298 129.884 69.4729C129.884 69.8533 129.884 70.2814 129.608 70.5462C130.86 70.5741 132.08 70.9146 133.301 71.1934C133.835 71.3149 134.415 71.4204 134.911 71.1934C135.192 71.0415 135.442 70.839 135.649 70.596C136.314 69.917 137.01 69.1782 137.172 68.2363C137.263 67.7106 137.172 67.169 137.2 66.6433C137.261 65.9829 137.394 65.3311 137.596 64.6998C137.948 63.3905 138.184 62.0524 138.302 60.7012C138.373 59.8688 139.093 59.1978 139.465 58.451C140.177 57.0452 140.903 55.5796 140.957 54.0005C140.983 53.4787 140.804 52.8395 140.284 52.7818Z" fill="black"/>
<path d="M138.807 78.1351C137.461 77.4899 136.476 76.2892 135.388 75.2597C133.311 73.2962 130.769 71.9063 128.585 70.0643C127.137 68.8457 125.843 67.4239 124.252 66.4023C122.853 65.5066 121.267 64.9479 119.617 64.7694C119.428 64.7357 119.234 64.7452 119.05 64.7973C118.841 64.8902 118.659 65.0348 118.521 65.2175C117.817 66.0181 117.19 66.885 116.65 67.8062C113.88 72.5355 109.948 76.5182 106.689 80.913C106.587 81.0175 106.526 81.1566 106.518 81.3036C106.511 81.4506 106.558 81.5951 106.65 81.7095L107.313 83.0158C107.683 83.7486 108.278 84.6088 109.077 84.4555C109.443 84.3878 109.734 84.117 110.003 83.8581L112.97 80.9966L116.09 77.9937C117.918 76.2354 119.776 74.4353 120.969 72.1871C121.898 73.812 123.552 74.8753 124.686 76.3688C125.117 76.9343 125.477 77.5636 125.853 78.161C126.47 79.1208 127.172 80.0229 127.873 80.9229L131.451 85.5209C131.938 86.1461 132.44 86.7873 133.107 87.2115C133.956 87.7511 134.986 87.8945 135.984 87.9841C137.328 88.1049 138.678 88.1541 140.027 88.1315C141.056 88.1135 142.116 88.0458 143.04 87.5859C143.964 87.1259 144.721 86.1919 144.674 85.1405C144.617 84.6002 144.441 84.0796 144.158 83.6172C142.888 81.2475 141.216 79.2861 138.807 78.1351Z" fill="#2F2E41"/>
<path d="M142.225 56.0694C142.893 56.0694 143.434 55.5211 143.434 54.8448C143.434 54.1684 142.893 53.6201 142.225 53.6201C141.557 53.6201 141.016 54.1684 141.016 54.8448C141.016 55.5211 141.557 56.0694 142.225 56.0694Z" fill="#E8E8F0"/>
<path d="M141.958 53.9248C142.23 54.4699 142.277 55.1009 142.09 55.6811C141.903 56.2536 141.642 56.7986 141.313 57.3021C141.03 57.8218 140.691 58.3086 140.302 58.7537C142.167 58.8453 143.978 58.1085 145.624 57.2144C146.949 56.4976 148.27 55.6094 148.987 54.2673C148.776 54.3186 148.557 54.3248 148.344 54.2853C148.131 54.2458 147.929 54.1617 147.75 54.0383C147.395 53.7886 147.077 53.4896 146.805 53.1502L145.867 52.0888C145.647 51.8582 145.454 51.6029 145.291 51.3281C145.088 50.9522 145.002 50.5234 145.044 50.0975C144.672 50.49 144.256 50.8375 143.804 51.133C143.135 51.5711 142.397 51.8897 141.726 52.3278C141.489 52.4811 140.959 52.726 141.095 53.0426C141.232 53.3593 141.774 53.5903 141.958 53.9248Z" fill="#FBBEBE"/>
<path opacity="0.1" d="M141.958 53.9248C142.23 54.4699 142.277 55.1009 142.09 55.6811C141.903 56.2536 141.642 56.7986 141.313 57.3021C141.03 57.8218 140.691 58.3086 140.302 58.7537C142.167 58.8453 143.978 58.1085 145.624 57.2144C146.949 56.4976 148.27 55.6094 148.987 54.2673C148.776 54.3186 148.557 54.3248 148.344 54.2853C148.131 54.2458 147.929 54.1617 147.75 54.0383C147.395 53.7886 147.077 53.4896 146.805 53.1502L145.867 52.0888C145.647 51.8582 145.454 51.6029 145.291 51.3281C145.088 50.9522 145.002 50.5234 145.044 50.0975C144.672 50.49 144.256 50.8375 143.804 51.133C143.135 51.5711 142.397 51.8897 141.726 52.3278C141.489 52.4811 140.959 52.726 141.095 53.0426C141.232 53.3593 141.774 53.5903 141.958 53.9248Z" fill="black"/>
<path d="M141.984 54.11C141.633 54.7074 141.558 55.4043 141.984 55.946C142.037 56.0137 142.233 56.4318 142.318 56.4358C142.4 56.4275 142.476 56.3885 142.532 56.3263C142.985 55.9101 143.323 55.3784 143.718 54.9065C144.114 54.4346 144.619 54.0064 145.224 53.9108C145.954 53.7973 146.66 54.1856 147.299 54.562C147.577 54.6984 147.82 54.8982 148.007 55.1455C148.142 55.3906 148.222 55.6625 148.241 55.942C148.46 57.6167 148.456 59.3133 148.45 61.0019C148.45 62.2246 148.45 63.4532 148.213 64.652C148.094 65.2733 147.916 65.8806 147.831 66.5059C147.77 67.0579 147.746 67.6133 147.758 68.1686V70.4945C147.742 70.9213 147.772 71.3486 147.847 71.7689C147.956 72.2787 148.195 72.7486 148.356 73.2445C148.521 73.8143 148.634 74.3982 148.694 74.9888L149.01 77.3963C149.109 78.155 149.182 78.9894 148.727 79.5868C148.53 79.8616 148.251 80.0826 148.043 80.3574C147.252 81.3809 147.511 82.8445 147.184 84.0971C146.928 85.014 146.399 85.8303 145.669 86.4369C145.109 86.9148 144.387 87.2891 143.669 87.1557C142.698 86.9745 142.114 85.9609 141.849 84.9912C141.584 84.0214 141.489 82.98 140.915 82.1675C140.446 81.5024 139.728 81.0842 139.064 80.6103C138.399 80.1364 137.766 79.525 137.623 78.7206C137.56 78.3701 137.6 78.0097 137.562 77.6552C137.51 77.2059 137.34 76.7789 137.067 76.4191C136.795 76.0593 136.432 75.7798 136.015 75.6101C135.519 75.411 134.905 75.3453 134.63 74.8873C135.354 74.4771 135.833 73.7184 136.086 72.9199C136.34 72.1214 136.391 71.2731 136.44 70.4367L136.607 67.6389C136.68 66.3884 136.713 65.1498 137.261 64.0267C137.505 63.5229 137.809 63.0529 138.065 62.5571C138.401 61.8594 138.689 61.1388 138.925 60.4005C139.321 59.2535 139.716 58.1065 140.073 56.9456C140.214 56.3848 140.426 55.8442 140.702 55.3366C140.983 54.8507 141.422 54.2155 141.984 54.11Z" fill="#5C7A77"/>
<path d="M135.811 72.2866L136.547 72.3125L136.704 71.1954C136.723 70.9713 136.775 70.7513 136.858 70.5422C136.98 70.3218 137.121 70.1132 137.281 69.919C138.005 68.8895 137.952 67.5294 138.132 66.2729C138.371 64.6042 139.064 63.043 139.748 61.5077L141.18 58.3037C141.464 57.7594 141.6 57.1495 141.576 56.5354C141.59 56.0396 141.734 54.2394 141.748 53.7476C141.748 53.5644 141.352 53.6659 141.263 53.5026C141.085 53.1462 140.84 54.112 140.506 54.323C140.171 54.5341 139.985 54.9204 139.845 55.2908C139.536 56.0973 139.348 56.9456 139.054 57.76C138.759 58.5745 138.367 59.375 137.72 59.9505C137.428 60.2093 137.091 60.4125 136.814 60.6893C135.926 61.5734 135.839 62.9693 135.807 64.2298C135.792 64.9686 135.641 72.2866 135.811 72.2866Z" fill="#2F2E41"/>
<path d="M146.399 52.7738C145.685 53.0566 145.293 53.8372 145.093 54.5859C144.894 55.3346 144.81 56.1351 144.427 56.8062C143.529 58.3773 141.242 58.8353 140.611 60.5339C140.413 61.0895 140.413 61.6988 140.355 62.2903C140.241 63.5069 139.843 64.6798 139.726 65.8985C139.664 66.8438 139.686 67.7928 139.792 68.7341L140.583 78.3302C140.7 79.7242 140.696 81.2037 140.344 82.5498C141.153 82.7071 141.995 82.4961 142.745 82.1516C143.495 81.8071 144.181 81.3331 144.903 80.9329C146.146 80.2419 147.517 79.754 148.605 78.834C148.802 78.6796 148.971 78.4916 149.103 78.2785C149.321 77.9001 149.341 77.4401 149.444 77.014C149.537 76.6734 149.657 76.3405 149.802 76.0183C150.2 75.0512 150.548 74.0634 150.842 73.0593C151.045 72.3933 151.204 71.7148 151.319 71.0281C151.406 70.4825 151.453 69.9289 151.501 69.3773C151.559 68.513 151.729 67.6601 152.007 66.8404C152.703 64.8864 153.097 62.8369 153.177 60.7629C153.199 60.4635 153.178 60.1623 153.115 59.8688C152.993 59.5129 152.831 59.1722 152.633 58.8533C152.3 58.224 152.1 57.531 151.788 56.8898C151.08 55.4461 149.827 54.3489 148.518 53.4309C147.881 52.9829 147.129 52.4871 146.399 52.7738Z" fill="#2F2E41"/>
<path d="M129.689 68.4295C129.121 68.1293 128.606 67.7356 128.167 67.2646C127.97 67.0296 127.803 66.7647 127.6 66.5338C127.086 65.9814 126.419 65.5982 125.685 65.4346C124.957 65.2736 124.212 65.2008 123.467 65.2175C122.968 65.1855 122.468 65.2463 121.991 65.3967C121.753 65.4752 121.538 65.6135 121.367 65.7984C121.196 65.9834 121.075 66.209 121.014 66.4541C120.905 67.0515 121.293 67.631 121.758 68.0153C122.191 68.3708 122.7 68.6197 123.246 68.7421C123.69 68.8195 124.139 68.872 124.589 68.8994C127.236 69.1782 129.598 70.6279 131.908 71.9481C133.946 73.1097 136.022 74.1943 138.138 75.2019C138.221 74.5637 138.256 73.9199 138.243 73.2763C138.231 72.7964 138.207 72.0636 137.756 71.7809C137.232 71.4523 136.371 71.3826 135.778 71.1835C134.414 70.7334 133.083 70.1912 131.792 69.5605C131.078 69.2087 130.377 68.8317 129.689 68.4295Z" fill="#FBBEBE"/>
<path d="M145.943 49.9228C146.609 47.3733 145.106 44.7661 142.587 44.0995C140.068 43.4328 137.486 44.9592 136.82 47.5087C136.154 50.0582 137.657 52.6654 140.176 53.332C142.695 53.9987 145.277 52.4723 145.943 49.9228Z" fill="#FBBEBE"/>
<path d="M147.748 58.1862C147.327 58.68 147.115 59.3172 146.832 59.9027C146.251 61.1094 145.337 62.1449 144.88 63.4074C144.397 64.7376 144.413 66.3187 143.467 67.3641C143.303 67.5453 143.105 67.7206 143.058 67.9615C143.051 68.1078 143.035 68.2536 143.008 68.3976C142.874 68.776 142.256 68.7959 142.142 69.1822C142.108 69.2957 142.126 69.4191 142.084 69.5307C141.989 69.7796 141.663 69.8174 141.443 69.9687C140.984 70.2814 141.077 71.0062 140.751 71.4583C140.608 71.6274 140.422 71.755 140.214 71.8278C140.005 71.9006 139.781 71.916 139.564 71.8724C139.135 71.7839 138.723 71.6287 138.342 71.4124C138.206 71.3367 138.057 71.2899 137.902 71.275C137.72 71.2809 137.543 71.3412 137.394 71.4483C136.524 72.0059 136.114 73.111 136.12 74.1545C136.126 75.1979 136.482 76.2015 136.846 77.1773C136.896 77.3418 136.978 77.4947 137.087 77.6273C137.376 77.934 137.879 77.8862 138.262 77.7149C138.646 77.5437 138.994 77.2749 139.406 77.1992C140.136 77.0658 140.85 77.5716 141.582 77.5297C142.124 77.4979 142.605 77.1813 143.054 76.8746C143.774 76.3847 144.506 75.8789 145.032 75.186C145.356 74.7598 145.594 74.2759 145.877 73.8199C146.239 73.2643 146.635 72.7323 147.064 72.2269L149.782 68.8775C150.055 68.5604 150.3 68.2199 150.514 67.86C150.761 67.3738 150.952 66.8607 151.083 66.3306C151.343 65.4365 151.604 64.5385 151.647 63.6045C151.662 62.8383 151.596 62.0726 151.449 61.3205C151.356 60.5709 151.156 59.8386 150.856 59.146C150.296 57.9034 148.858 56.8819 147.748 58.1862Z" fill="#2F2E41"/>
<path d="M155.97 56.0555C156.188 55.2381 156.209 54.3805 156.033 53.553C155.857 52.7256 155.488 51.9521 154.957 51.2963C155.679 48.1958 154.106 45.0914 151.337 43.9424C151.436 41.0351 149.606 38.3667 146.787 37.618C143.857 36.8434 140.852 38.4006 139.588 41.1685C137.808 40.2385 135.924 40.3381 135.303 41.4313C134.654 42.5743 135.629 44.3725 137.479 45.4458C138.062 45.7888 138.7 46.0266 139.364 46.1487C139.65 46.961 140.101 47.7041 140.688 48.3303C141.276 48.9565 141.988 49.452 142.777 49.7849C142.728 50.9603 143.006 52.1262 143.579 53.1516C144.152 54.1769 144.998 55.0212 146.021 55.5895C146.133 56.4066 146.433 57.1861 146.898 57.8656C146.843 58.0082 146.797 58.1538 146.759 58.3017C146.178 60.522 147.436 62.7801 149.566 63.3437C151.697 63.9072 153.897 62.5651 154.476 60.3448C154.632 59.7529 154.659 59.1341 154.555 58.5307C155.239 57.8484 155.728 56.9934 155.97 56.0555Z" fill="#3F3D56"/>
<path opacity="0.1" d="M136.524 42.0088C137.145 40.9156 139.026 40.814 140.808 41.746C142.069 38.978 145.078 37.4188 148.007 38.1955C148.14 38.2293 148.27 38.2711 148.403 38.3149C147.902 38.0039 147.358 37.769 146.789 37.618C143.859 36.8434 140.854 38.4006 139.59 41.1685C137.809 40.2385 135.926 40.3381 135.305 41.4313C134.656 42.5743 135.631 44.3725 137.481 45.4458C137.828 45.6469 138.194 45.8136 138.573 45.9436C136.805 44.8564 135.891 43.1239 136.524 42.0088Z" fill="black"/>
<path opacity="0.1" d="M147.982 58.8792C148.019 58.7312 148.066 58.5856 148.12 58.4431C147.656 57.7628 147.356 56.9827 147.244 56.165C146.22 55.5972 145.375 54.7533 144.801 53.7282C144.228 52.7032 143.951 51.5376 143.999 50.3623C143.21 50.0295 142.499 49.534 141.911 48.9078C141.323 48.2816 140.872 47.5384 140.587 46.7262C140.2 46.6567 139.821 46.5452 139.457 46.3937C139.759 47.1513 140.208 47.8408 140.778 48.422C141.348 49.0032 142.026 49.4645 142.775 49.7789C142.726 50.9544 143.004 52.1202 143.577 53.1456C144.15 54.1709 144.996 55.0152 146.019 55.5835C146.131 56.4006 146.431 57.1801 146.896 57.8596C146.841 58.0022 146.795 58.1478 146.757 58.2957C146.177 60.508 147.426 62.7582 149.544 63.3317C148.865 62.8375 148.352 62.1465 148.072 61.351C147.793 60.5555 147.762 59.6933 147.982 58.8792Z" fill="black"/>
<path d="M143.416 50.3585C143.735 50.1144 143.731 49.5679 143.406 49.1379C143.082 48.7079 142.56 48.5572 142.241 48.8013C141.921 49.0455 141.925 49.592 142.25 50.022C142.574 50.452 143.096 50.6026 143.416 50.3585Z" fill="#FBBEBE"/>
<path d="M85.4212 8.33381C87.201 8.33381 88.6438 6.88149 88.6438 5.08997C88.6438 3.29845 87.201 1.84613 85.4212 1.84613C83.6414 1.84613 82.1986 3.29845 82.1986 5.08997C82.1986 6.88149 83.6414 8.33381 85.4212 8.33381Z" fill="#3F3D56"/>
<path d="M92.4144 24.0771C97.4063 24.0771 101.453 18.7992 101.453 12.2885C101.453 5.77791 97.4063 0.5 92.4144 0.5C87.4225 0.5 83.3757 5.77791 83.3757 12.2885C83.3757 18.7992 87.4225 24.0771 92.4144 24.0771Z" fill="#3F3D56"/>
<path opacity="0.1" d="M92.4143 20.5166C87.8861 20.5166 84.1353 16.1736 83.4765 10.5083C83.408 11.0992 83.3737 11.6936 83.3737 12.2885C83.3737 18.7981 87.4212 24.0771 92.4143 24.0771C97.4074 24.0771 101.453 18.7981 101.453 12.2885C101.453 11.6936 101.419 11.0992 101.35 10.5083C100.693 16.1816 96.9425 20.5166 92.4143 20.5166Z" fill="black"/>
<path d="M111.675 46.8138C111.477 47.6104 110.644 48.2595 109.718 48.7076C107.768 49.6534 105.366 49.9342 103.034 50.0298C102.44 50.066 101.845 50.0547 101.253 49.9959C100.033 49.8506 98.901 49.3269 98.1948 48.5801C98.094 48.4986 98.0242 48.3847 97.9969 48.2575C98.0019 48.1812 98.0219 48.1067 98.0559 48.0383C98.0899 47.9699 98.1371 47.909 98.1948 47.8593C99.4391 46.4932 101.512 45.6529 103.593 45.0555C105.176 44.5955 107.934 43.4047 109.661 43.566C111.338 43.7114 111.92 45.7983 111.675 46.8138Z" fill="#3F3D56"/>
<path opacity="0.1" d="M111.675 46.8138C111.477 47.6104 110.644 48.2595 109.718 48.7076C107.768 49.6534 105.366 49.9342 103.034 50.0298C102.44 50.066 101.845 50.0547 101.253 49.9959C100.033 49.8506 98.901 49.3269 98.1948 48.5801C98.094 48.4986 98.0242 48.3847 97.9969 48.2575C98.0019 48.1812 98.0219 48.1067 98.0559 48.0383C98.0899 47.9699 98.1371 47.909 98.1948 47.8593C99.4391 46.4932 101.512 45.6529 103.593 45.0555C105.176 44.5955 107.934 43.4047 109.661 43.566C111.338 43.7114 111.92 45.7983 111.675 46.8138Z" fill="black"/>
<path d="M86.895 40.812C86.3018 41.9836 86.1943 43.3443 86.5963 44.5955C87.0061 45.8397 87.7738 46.9334 88.8021 47.7378C91.3283 49.7789 94.7942 50.0597 98.0247 50.0338C100.857 50.0081 103.686 49.8126 106.496 49.4483C107.431 49.3269 108.377 49.1835 109.243 48.8071C110.298 48.3471 111.222 47.5048 111.6 46.4176C111.977 45.3303 111.71 43.9842 110.808 43.2554C110.017 42.6142 108.943 42.5265 107.936 42.4588L102.169 42.1104C102.739 41.5289 103.497 41.2003 104.191 40.7802C105.111 40.2186 105.722 39.2787 106.393 38.4324C107.382 37.1659 108.569 36.0588 109.756 34.9576C109.954 36.0409 110.624 36.931 111.425 37.6797C112.227 38.4284 113.15 39.0298 113.985 39.7407C116.003 41.4652 117.455 43.807 119.578 45.4C121.038 45.0135 122.403 44.3274 123.588 43.3848L122.763 41.8814C122.695 41.7239 122.588 41.5867 122.452 41.4831C122.217 41.3397 121.916 41.4134 121.645 41.3736C120.921 41.2641 120.605 40.4217 120.32 39.7427C119.54 37.8749 118.045 36.4272 116.759 34.862C115.821 33.7081 114.99 32.4704 114.276 31.1641C113.847 30.3855 113.455 29.5711 112.872 28.9C112.288 28.229 111.475 27.7052 110.589 27.7052C109.797 27.7052 109.085 28.1035 108.413 28.5018C106.364 29.7271 104.392 31.0792 102.509 32.5501C101.52 33.3187 100.545 34.1332 99.3897 34.6051C98.9031 34.8043 98.4006 34.9397 97.9238 35.1806C97.1068 35.6048 96.4856 36.3216 95.817 36.9569C93.4351 39.225 90.173 40.6945 86.895 40.812Z" fill="#605D82"/>
<path d="M98.9545 24.6625C98.9288 25.3566 98.7822 26.0407 98.5213 26.6837C98.3892 27.0032 98.1931 27.2918 97.9454 27.5316C97.6976 27.7714 97.4034 27.9573 97.0811 28.0776C96.6226 28.2013 96.142 28.217 95.6765 28.1234C95.2698 28.0793 94.8782 27.9431 94.5311 27.7252C93.991 27.3508 93.722 26.6837 93.6231 26.0306C93.5242 25.3774 93.5697 24.7103 93.5064 24.0532C93.4448 23.5221 93.3443 22.9963 93.2057 22.4801C93.1641 22.3088 93.1206 22.1375 93.0771 21.9663C93.0336 21.795 92.996 21.6238 92.9584 21.4525C92.9208 21.2813 92.8911 21.1319 92.8634 20.9687C92.8357 20.8054 92.8199 20.6939 92.8061 20.5565C92.7934 20.1459 92.7269 19.7388 92.6082 19.3457C92.4956 19.0913 92.3542 18.8508 92.1869 18.6289C92.1157 18.5253 92.0464 18.4297 91.9891 18.3162C91.8049 18.0388 91.7191 17.7069 91.7457 17.3743C91.7533 17.3228 91.7659 17.2721 91.7833 17.223C91.7894 17.204 91.7966 17.1853 91.8051 17.1672C91.8756 17.1478 91.9404 17.1113 91.9938 17.061C92.0472 17.0107 92.0877 16.9481 92.1117 16.8785C92.1388 16.7284 92.1258 16.5738 92.0741 16.4305C92.016 16.2302 91.9357 16.0372 91.8347 15.855C91.7695 15.7355 91.5459 15.5184 91.5439 15.381C91.5439 15.1043 92.0781 14.8812 92.2957 14.7717C92.9604 14.4361 93.702 14.2849 94.4441 14.3336C94.9188 14.3655 95.4332 14.5128 95.6963 14.9151C95.9337 15.2755 95.8941 15.7435 96.0029 16.1636C96.012 16.225 96.0373 16.2827 96.0761 16.3309C96.1278 16.3782 96.1928 16.4081 96.2621 16.4165C96.378 16.4401 96.4968 16.4448 96.6142 16.4305C96.6456 16.4288 96.6767 16.4241 96.7072 16.4165C96.8901 16.3825 97.0632 16.3076 97.2136 16.1975C97.3125 16.1696 97.4115 16.1497 97.5084 16.1318H97.5203C97.9159 17.3823 97.9654 18.7205 98.2878 19.9989C98.4481 20.6321 98.6835 21.2574 98.7092 21.9105C98.7092 21.9384 98.7092 21.9683 98.7092 21.9962C98.7092 22.2073 98.6973 22.4183 98.7092 22.6274C98.7128 22.721 98.7234 22.8142 98.7408 22.9062C98.7765 23.0545 98.8201 23.2007 98.8714 23.3443C98.8853 23.3901 98.8991 23.4359 98.911 23.4837C98.9208 23.5171 98.9287 23.551 98.9347 23.5852C98.9927 23.9415 98.9993 24.3043 98.9545 24.6625Z" fill="#FBBEBE"/>
<path d="M93.439 16.4822C96 16.4822 98.0761 14.3925 98.0761 11.8146C98.0761 9.23675 96 7.14699 93.439 7.14699C90.8781 7.14699 88.802 9.23675 88.802 11.8146C88.802 14.3925 90.8781 16.4822 93.439 16.4822Z" fill="#FBBEBE"/>
<path d="M122.881 37.2476C122.746 35.9754 122.297 34.7574 121.574 33.7051L121.936 35.8656C121.786 35.9089 121.626 35.9073 121.477 35.861C121.328 35.8147 121.195 35.7257 121.095 35.6048C120.899 35.3592 120.75 35.0799 120.654 34.7804C120.127 33.4641 119.438 32.2197 118.602 31.0765C115.651 30.8276 112.731 29.597 110.136 28.1593C107.54 26.7215 105.109 25.003 102.545 23.5076C102.1 23.2377 101.638 22.9995 101.16 22.7947C100.359 22.4721 99.4589 22.3048 98.6992 21.9245L98.5469 21.8428C98.3747 21.7499 98.2118 21.6405 98.0603 21.5163C97.9789 21.4486 97.9016 21.3761 97.8288 21.2992C97.4494 20.8555 97.1483 20.3497 96.9386 19.8037C96.5311 18.8957 96.3847 17.7985 95.9791 16.8905C96.1662 16.7151 96.3758 16.5658 96.6023 16.4464L96.7012 16.3966C96.8623 16.3209 97.0298 16.2596 97.2017 16.2134C97.3006 16.1855 97.3995 16.1656 97.4964 16.1477H97.5083C97.9681 16.0731 98.4389 16.1107 98.8812 16.2572C99.5261 16.4783 100.068 16.9163 100.614 17.3325C101.475 17.9877 102.369 18.605 103.15 19.3557C103.597 19.7878 104.007 20.2617 104.488 20.654C104.888 20.9655 105.311 21.2476 105.752 21.4983L113.574 26.1879C114.456 26.7156 115.34 27.2453 116.203 27.8068C117.514 28.6571 118.775 29.5791 120.041 30.501L122.274 32.1299C122.519 32.2895 122.733 32.4918 122.907 32.7273C123.06 32.9914 123.155 33.2854 123.186 33.5896C123.372 34.8161 123.267 36.0693 122.881 37.2476Z" fill="#FBBEBE"/>
<path d="M100.106 28.1732C99.7913 29.585 98.3749 30.4393 97.6331 31.6799C96.7112 33.2192 97.0871 35.0094 97.4352 36.7737L95.5381 38.4185C95.1899 38.7192 94.8398 39.0159 94.4659 39.2887C93.9175 39.6597 93.3444 39.9924 92.7507 40.2843L91.0732 41.1525C90.5527 41.4469 90.0013 41.682 89.4292 41.8535C88.3254 42.1382 87.1542 41.9391 86.0662 41.6105C85.9374 41.5768 85.8137 41.5259 85.6982 41.4592C85.6304 41.4181 85.5712 41.364 85.5241 41.2999C85.4157 41.1058 85.3766 40.8802 85.4134 40.6607C85.5241 38.8128 85.9732 37.0027 86.4203 35.2065C86.6552 34.1278 86.9734 33.0692 87.3718 32.0403C87.7643 31.1596 88.2158 30.3067 88.723 29.4875C89.3165 28.4779 89.9099 27.4603 90.7012 26.5941C91.0395 26.2197 91.4174 25.8653 91.6191 25.3993C91.8981 24.7581 91.7893 24.0233 91.8466 23.3264C91.8894 22.8017 92.0275 22.2894 92.2542 21.815C92.3754 21.5596 92.5212 21.3168 92.6894 21.0901C92.7665 21.2693 92.8417 21.4486 92.9189 21.6258L93.0672 21.9763C93.1325 22.1256 93.1958 22.2769 93.2651 22.4263C93.4497 22.8538 93.633 23.2819 93.815 23.7107C94.0114 24.2508 94.2926 24.7557 94.6479 25.2062C95.0257 25.6363 95.5816 25.9489 96.1474 25.8872C96.4131 25.8426 96.6656 25.739 96.8866 25.584C97.1077 25.429 97.2917 25.2265 97.4253 24.9911C97.6904 24.5195 97.8819 24.0098 97.9931 23.4797C98.149 22.8346 98.1705 22.1641 98.0564 21.5103C97.8586 20.2498 97.3343 18.9634 96.9486 17.7925C96.7912 17.4024 96.7003 16.9884 96.6795 16.5679C96.6792 16.5204 96.6839 16.473 96.6934 16.4265V16.3906C96.8545 16.3149 97.022 16.2536 97.1939 16.2074C97.2928 16.1796 97.3917 16.1596 97.4886 16.1417C97.8289 18.0003 98.1698 19.8548 98.5114 21.7054C98.5114 21.7492 98.5292 21.7931 98.5371 21.8369C98.5846 22.1037 98.6341 22.3685 98.6895 22.6334C98.7448 22.8982 98.7923 23.1133 98.8517 23.3503C98.8715 23.4299 98.8932 23.5115 98.915 23.5912C98.9763 23.8102 99.0435 24.0253 99.1128 24.2404C99.5955 25.5407 100.401 26.837 100.106 28.1732Z" fill="#5C7A77"/>
<path d="M118.927 48.0206C118.91 48.2948 118.962 48.5689 119.079 48.8171C119.368 49.3508 120.068 49.4722 120.662 49.522C124.182 49.8141 127.724 49.7059 131.22 49.1994C131.41 49.1855 131.594 49.1275 131.758 49.0302C132.255 48.6797 131.956 47.8254 131.406 47.5506C130.856 47.2758 130.219 47.3515 129.625 47.226C129.033 47.0753 128.47 46.8292 127.956 46.4972C126.749 45.7989 125.562 45.0688 124.395 44.3068C123.697 43.8547 122.872 43.3729 122.086 43.6417C119.952 44.3665 118.911 45.7087 118.927 48.0206Z" fill="#2F2E41"/>
<path d="M92.9761 21.3589L92.9583 21.4565L92.9287 21.6198C92.8317 22.1216 92.711 22.6155 92.5745 23.1193C92.1967 24.4913 91.6922 25.8434 91.1898 27.1736L87.1521 37.8868C86.8119 38.7869 86.4736 39.679 86.0878 40.5671C85.9592 40.8598 85.8267 41.1645 85.6922 41.4552C85.2194 42.5246 84.7644 43.6297 84.614 44.7708C84.5151 45.5255 84.4162 46.2961 84.5646 47.0428C84.7129 47.7896 85.158 48.5204 85.8722 48.7952C86.2164 48.9306 86.709 49.1118 86.614 49.4722C86.5646 49.6714 86.3411 49.7669 86.1393 49.7988C85.8747 49.8418 85.6039 49.8253 85.3464 49.7506C85.0889 49.6759 84.8509 49.5448 84.6496 49.3667C84.2738 49.0321 83.983 48.5084 83.4825 48.4527C83.1363 48.4148 82.8178 48.6239 82.4933 48.7693C81.1976 49.3667 79.6901 48.9485 78.3291 48.5244C78.4359 47.9708 78.9898 47.6044 79.5378 47.4949C80.0858 47.3853 80.6555 47.461 81.2174 47.4471C81.3971 47.4565 81.5753 47.4099 81.7277 47.3136C81.8655 47.1897 81.9639 47.0276 82.0106 46.8477C82.3711 45.7709 82.6392 44.665 82.8118 43.5421C82.9938 42.3672 83.069 41.1764 83.3262 40.0175C83.524 39.1134 83.8366 38.2373 84.1017 37.3491C84.6163 35.5213 85.0382 33.6683 85.3658 31.7974C85.5318 31.0208 85.6507 30.2348 85.7218 29.4437C85.7673 28.7865 85.7456 28.1254 85.8089 27.4723C85.9139 26.6212 86.09 25.7806 86.3351 24.9592C86.5765 24.0611 86.8158 23.1671 87.0572 22.271C87.4133 20.9448 87.7951 19.5688 88.6972 18.5393C89.0103 18.1764 89.3942 17.8822 89.825 17.675C90.2559 17.4677 90.7244 17.3518 91.2016 17.3345C91.3806 17.3337 91.5591 17.3531 91.7338 17.3923L91.8208 17.4142C92.0119 17.4637 92.195 17.5401 92.3648 17.6412C92.6438 17.462 92.7842 17.5257 92.9702 17.7985C93.1316 18.0898 93.2077 18.4212 93.1898 18.7543C93.204 19.6275 93.1325 20.4999 92.9761 21.3589Z" fill="#FBBEBE"/>
<path d="M93.2808 22.4163L93.2689 22.4283L93.2056 22.492L92.5746 23.1272L92.264 21.817L91.2017 17.3285C91.3806 17.3277 91.5591 17.3471 91.7338 17.3863C91.7414 17.3347 91.754 17.284 91.7714 17.235L91.8209 17.4082L92.1809 18.6408L92.8634 20.9806L92.9762 21.3669L93.2808 22.4163Z" fill="#5C7A77"/>
<path d="M96.8239 4.93066H91.5103C90.1992 4.93066 89.1364 6.00051 89.1364 7.32023V8.87146C89.1364 10.1912 90.1992 11.261 91.5103 11.261H96.8239C98.1349 11.261 99.1978 10.1912 99.1978 8.87146V7.32023C99.1978 6.00051 98.1349 4.93066 96.8239 4.93066Z" fill="#3F3D56"/>
<path d="M99.7853 8.33381C101.565 8.33381 103.008 6.88149 103.008 5.08997C103.008 3.29845 101.565 1.84613 99.7853 1.84613C98.0055 1.84613 96.5627 3.29845 96.5627 5.08997C96.5627 6.88149 98.0055 8.33381 99.7853 8.33381Z" fill="#3F3D56"/>
<path opacity="0.1" d="M99.7082 1.84414H99.5895C100.419 1.88002 101.204 2.23714 101.778 2.841C102.353 3.44485 102.674 4.24877 102.674 5.08499C102.674 5.92122 102.353 6.72514 101.778 7.32899C101.204 7.93284 100.419 8.28997 99.5895 8.32585H99.7082C100.563 8.32585 101.383 7.98408 101.987 7.37574C102.591 6.76741 102.931 5.94232 102.931 5.082C102.931 4.22168 102.591 3.3966 101.987 2.78826C101.383 2.17992 100.563 1.83817 99.7082 1.83817V1.84414Z" fill="black"/>
<path opacity="0.1" d="M85.4212 1.84414H85.5399C84.7099 1.88002 83.9258 2.23714 83.3511 2.841C82.7764 3.44485 82.4556 4.24877 82.4556 5.08499C82.4556 5.92122 82.7764 6.72514 83.3511 7.32899C83.9258 7.93284 84.7099 8.28997 85.5399 8.32585H85.4212C84.998 8.32585 84.5789 8.24194 84.188 8.07892C83.797 7.9159 83.4417 7.67696 83.1425 7.37574C82.8432 7.07453 82.6059 6.71693 82.4439 6.32337C82.282 5.92981 82.1986 5.50799 82.1986 5.082C82.1986 4.65602 82.282 4.2342 82.4439 3.84064C82.6059 3.44708 82.8432 3.08948 83.1425 2.78826C83.4417 2.48704 83.797 2.24811 84.188 2.08509C84.5789 1.92207 84.998 1.83817 85.4212 1.83817V1.84414Z" fill="black"/>
<path opacity="0.1" d="M99.2967 10.6258H91.1304C90.8805 10.6258 90.6408 10.526 90.4638 10.3483C90.2869 10.1706 90.1873 9.9295 90.1868 9.67793V10.3092C90.1873 10.5609 90.2869 10.8022 90.4637 10.9802C90.6406 11.1583 90.8803 11.2585 91.1304 11.259H99.3046C99.5547 11.2585 99.7944 11.1583 99.9712 10.9802C100.148 10.8022 100.248 10.5609 100.248 10.3092V9.67793C100.248 9.8031 100.223 9.92693 100.175 10.0423C100.126 10.1578 100.056 10.2625 99.9677 10.3505C99.8794 10.4386 99.7746 10.5082 99.6594 10.5554C99.5443 10.6027 99.421 10.6266 99.2967 10.6258Z" fill="black"/>
<path d="M127 43.8309C127 43.8309 127.511 43.9205 127.594 43.5043C127.635 43.3051 127.495 42.0267 127.335 40.7483C127.257 40.1191 127.174 39.4918 127.107 38.99C127.026 38.3747 126.967 37.9505 126.967 37.9505L126.874 37.6399L126.324 35.78L125.805 34.0276L125.424 33.3387L122.676 34.6848L120.967 37.6578L121.497 37.9943L121.59 38.0541L122.565 39.0816L125.299 41.969L126.529 43.2693L126.674 43.4206L127 43.8309Z" fill="#FFE09C"/>
<path d="M124.84 32.1558C124.84 32.1558 121.829 33.5776 121.105 35.1229C121.105 35.1229 120.428 36.4232 120.343 37.1142C120.343 37.1142 120.146 37.7454 121.394 37.9007C121.394 37.9007 121.962 35.5809 123.665 34.5733L125.37 33.5677L124.84 32.1558Z" fill="#E7C4C3"/>
<path d="M125.625 35.725C125.771 35.1735 125.514 34.6249 125.05 34.4996C124.586 34.3744 124.091 34.72 123.944 35.2715C123.797 35.823 124.054 36.3716 124.518 36.4969C124.982 36.6221 125.478 36.2765 125.625 35.725Z" fill="#FF7F8E"/>
<path d="M125.298 39.3303C125.443 38.7809 125.186 38.2349 124.724 38.1109C124.262 37.9869 123.769 38.3317 123.623 38.8812C123.478 39.4306 123.735 39.9765 124.197 40.1005C124.66 40.2245 125.152 39.8797 125.298 39.3303Z" fill="#FF7F8E"/>
<path d="M122.565 39.0816C122.723 39.0171 122.863 38.9158 122.974 38.7859C123.085 38.6561 123.164 38.5014 123.204 38.3349C123.35 37.7853 123.093 37.2376 122.63 37.1142C122.167 36.9907 121.675 37.3352 121.53 37.8848C121.519 37.9219 121.51 37.9599 121.505 37.9983L121.598 38.0581L122.565 39.0816Z" fill="#FF7F8E"/>
<path d="M126.243 37.7534C126.351 37.781 126.464 37.7852 126.574 37.7656C126.684 37.746 126.789 37.7032 126.882 37.6399L126.332 35.78C126.168 35.8412 126.021 35.9421 125.905 36.0737C125.79 36.2053 125.708 36.3636 125.667 36.5347C125.522 37.0903 125.78 37.6299 126.243 37.7534Z" fill="#FF7F8E"/>
<path d="M126.561 40.9713C126.699 41.0042 126.844 41.0009 126.98 40.9619C127.117 40.9229 127.242 40.8494 127.342 40.7483C127.265 40.119 127.182 39.4918 127.115 38.99H127.089C126.626 38.8645 126.134 39.211 125.987 39.7606C125.841 40.3102 126.1 40.8479 126.561 40.9713Z" fill="#FF7F8E"/>
<path d="M126.529 43.2633C126.586 43.1669 126.629 43.063 126.658 42.9547C126.804 42.4051 126.547 41.8595 126.084 41.736C125.944 41.7018 125.798 41.7048 125.659 41.7446C125.52 41.7843 125.394 41.8596 125.293 41.963L126.529 43.2633Z" fill="#FF7F8E"/>
<path d="M125.17 34.9357L125.487 35.0213C125.362 35.2517 125.289 35.5064 125.271 35.768C125.27 35.7853 125.27 35.8026 125.271 35.8198C125.313 36.1484 124.955 35.7342 124.955 35.7342C124.955 35.7342 125.016 35.0591 125.17 34.9357Z" fill="#94CC79"/>
<path d="M123.728 36.9907L124.047 37.0763C123.921 37.3056 123.848 37.5599 123.831 37.8211C123.83 37.8383 123.83 37.8556 123.831 37.8729C123.873 38.2014 123.515 37.7872 123.515 37.7872C123.515 37.7872 123.574 37.1122 123.728 36.9907Z" fill="#94CC79"/>
<path d="M124.713 37.6697L125.03 37.7534C124.905 37.9838 124.832 38.2385 124.814 38.5001C124.813 38.5174 124.813 38.5346 124.814 38.5519C124.858 38.8805 124.498 38.4663 124.498 38.4663C124.498 38.4663 124.563 37.7912 124.713 37.6697Z" fill="#94CC79"/>
<path d="M125.979 39.3843L126.298 39.4679C126.173 39.6979 126.099 39.9528 126.082 40.2146C126.081 40.2319 126.081 40.2492 126.082 40.2664C126.124 40.595 125.766 40.1808 125.766 40.1808C125.766 40.1808 125.827 39.5057 125.979 39.3843Z" fill="#94CC79"/>
<path d="M126.769 42.2059L127.085 42.2916C126.961 42.5214 126.888 42.7754 126.87 43.0363C126.869 43.0536 126.869 43.0709 126.87 43.0881C126.913 43.4167 126.553 43.0045 126.553 43.0045C126.553 43.0045 126.614 42.3274 126.769 42.2059Z" fill="#94CC79"/>
<path d="M125.052 40.2326L125.368 40.3182C125.243 40.5509 125.171 40.8087 125.156 41.0729C125.155 41.0901 125.155 41.1074 125.156 41.1247C125.198 41.4532 124.84 41.041 124.84 41.041C124.84 41.041 124.899 40.354 125.052 40.2326Z" fill="#94CC79"/>
<path d="M125.819 32.4187C125.819 32.4187 125.366 31.3852 124.83 32.1558C124.875 32.7815 125.08 33.385 125.424 33.9082C125.424 33.9082 127.064 38.3986 126.927 39.0856C126.927 39.0856 127.574 43.4226 127.414 43.6656C127.414 43.6656 127.592 43.9722 127.718 42.8193C127.845 41.6663 127.289 38.2791 127.289 38.2791L126.476 34.7585L125.932 33.5637L125.819 32.4187Z" fill="#E7C4C3"/>
<path opacity="0.2" d="M125.819 32.4187C125.819 32.4187 125.366 31.3852 124.83 32.1558C124.875 32.7815 125.08 33.385 125.424 33.9082C125.424 33.9082 127.064 38.3986 126.927 39.0856C126.927 39.0856 127.574 43.4226 127.414 43.6656C127.414 43.6656 127.592 43.9722 127.718 42.8193C127.845 41.6663 127.289 38.2791 127.289 38.2791L126.476 34.7585L125.932 33.5637L125.819 32.4187Z" fill="white"/>
<path d="M120.379 34.1312C120.379 34.1312 121.192 36.4889 121.936 35.8616L121.342 32.7811L120.379 34.1312Z" fill="#FBBEBE"/>
<path d="M64.7701 43.8149C64.7701 43.8149 71.9413 55.9758 73.6169 57.6007C73.6169 57.6007 80.7822 65.0881 77.1402 64.5703C76.8731 64.5325 71.6288 60.07 71.3221 59.3372C71.0155 58.6044 61.1005 45.6389 61.1005 45.6389L62.5149 44.3287L64.7701 43.8149Z" fill="#A0616A"/>
<path opacity="0.1" d="M64.7701 43.8149C64.7701 43.8149 71.9413 55.9758 73.6169 57.6007C73.6169 57.6007 80.7822 65.0881 77.1402 64.5703C76.8731 64.5325 71.6288 60.07 71.3221 59.3372C71.0155 58.6044 61.1005 45.6389 61.1005 45.6389L62.5149 44.3287L64.7701 43.8149Z" fill="black"/>
<path d="M71.328 83.5315C71.328 83.5315 69.0332 86.4189 69.9907 87.5739C70.9482 88.7289 75.7178 90.9372 77.2569 90.8456C78.883 90.75 84.3331 91.0447 84.525 88.5357C84.525 88.5357 84.9068 87.3807 79.9354 87.1876C74.9641 86.9944 76.4913 81.7971 76.4913 81.7971L71.328 83.5315Z" fill="#2F2E41"/>
<path d="M43.9807 59.0823C43.9807 59.0823 41.6859 66.9738 48.5702 68.3219L56.0283 67.9376C56.0283 67.9376 66.5467 65.8189 69.4171 67.3601C69.4171 67.3601 70.5645 67.5593 70.1807 69.0926C69.797 70.6259 70.7544 81.0285 70.7544 81.0285V84.4933C70.7544 84.4933 77.257 84.4933 78.0226 83.7227C78.0226 83.7227 77.4489 80.6422 78.0226 78.147C78.5963 75.6519 77.0671 67.7504 77.0671 67.7504L76.9147 63.0091C76.9031 62.4216 76.7363 61.8477 76.4314 61.3466C76.1264 60.8454 75.6945 60.435 75.1798 60.1576C74.8181 59.9648 74.4159 59.8617 74.0067 59.8569C74.0067 59.8569 61.0016 57.7401 56.4121 58.1245C51.8225 58.5088 43.9807 59.0823 43.9807 59.0823Z" fill="#605D82"/>
<path d="M56.7938 33.8624C56.7938 33.8624 60.236 37.9047 60.6178 39.2528C60.9996 40.6009 65.2153 44.0598 65.2153 44.0598C65.2153 44.0598 62.1549 46.3698 62.7286 47.5247C63.3023 48.6797 58.7127 43.6755 58.7127 43.6755L53.3457 35.788L56.7938 33.8624Z" fill="#5C7A77"/>
<path opacity="0.1" d="M56.7938 33.8624C56.7938 33.8624 60.236 37.9047 60.6178 39.2528C60.9996 40.6009 65.2153 44.0598 65.2153 44.0598C65.2153 44.0598 62.1549 46.3698 62.7286 47.5247C63.3023 48.6797 58.7127 43.6755 58.7127 43.6755L53.3457 35.788L56.7938 33.8624Z" fill="black"/>
<path d="M59.0827 29.2425C59.0827 29.2425 57.3616 34.8182 57.3616 36.9429C57.3616 39.0676 50.0935 36.3654 50.2854 35.2105C50.4772 34.0555 54.4931 29.82 54.685 28.0876C54.8769 26.3551 59.0827 29.2425 59.0827 29.2425Z" fill="#A0616A"/>
<path opacity="0.1" d="M53.3457 33.0917C53.3457 33.0917 46.6513 31.3593 45.6958 41.1784C44.7403 50.9976 46.4594 52.1505 43.5909 58.1185C40.7224 64.0864 63.0985 58.8891 63.0985 58.8891C63.0985 58.8891 61.9511 57.541 58.317 58.1185L56.596 52.9212C56.596 52.9212 56.0223 50.6113 59.2745 50.6113C62.5268 50.6113 60.9956 43.8727 60.9956 43.8727C60.9956 43.8727 59.2745 38.0979 58.317 37.5204C57.3596 36.9429 55.6464 33.4781 53.3457 33.0917Z" fill="black"/>
<path d="M53.3457 32.7094C53.3457 32.7094 46.6513 30.977 45.6958 40.7941C44.7403 50.6112 46.4594 51.7682 43.5909 57.7361C40.7224 63.7041 63.0985 58.5068 63.0985 58.5068C63.0985 58.5068 61.9511 57.1587 58.317 57.7361L56.596 52.5388C56.596 52.5388 56.0282 50.2329 59.2805 50.2329C62.5327 50.2329 61.0015 43.4943 61.0015 43.4943C61.0015 43.4943 59.2805 37.7195 58.323 37.142C57.3655 36.5646 55.6464 33.0917 53.3457 32.7094Z" fill="#5C7A77"/>
<path d="M57.3675 32.7074C60.8528 32.7074 63.6782 29.8634 63.6782 26.3551C63.6782 22.8469 60.8528 20.0029 57.3675 20.0029C53.8823 20.0029 51.0569 22.8469 51.0569 26.3551C51.0569 29.8634 53.8823 32.7074 57.3675 32.7074Z" fill="#A0616A"/>
<path d="M56.1489 58.8812L72.0086 68.4235L86.7645 54.5839L69.1738 48.4168L56.5149 57.091L56.1489 58.8812Z" fill="#DADAE5"/>
<path d="M74.8652 32.1698L69.9294 46.9453L86.2936 51.6826L93.2788 31.7018L74.8652 32.1698Z" fill="#DADAE5"/>
<path opacity="0.03" d="M73.5477 31.0785L74.887 32.3111L93.3006 31.8432L93.724 30.6325L73.5477 31.0785Z" fill="black"/>
<path opacity="0.03" d="M68.6871 46.095L73.5477 31.0785L74.887 32.3111L70.0759 46.7163L68.6871 46.095Z" fill="black"/>
<path d="M73.5259 30.9371L74.8652 32.1698L93.2788 31.7018L93.7021 30.4911L73.5259 30.9371Z" fill="#EFF0F4"/>
<path d="M68.6654 45.9556L73.526 30.9371L74.8653 32.1698L70.0541 46.5749L68.6654 45.9556Z" fill="#EFF0F4"/>
<path opacity="0.03" d="M73.5259 30.9371L75.5734 32.8647L93.989 32.3968L93.7021 30.4911L73.5259 30.9371Z" fill="black"/>
<path opacity="0.03" d="M68.6654 45.9556L73.526 30.9371L75.5735 32.8647L70.7624 47.2698L68.6654 45.9556Z" fill="black"/>
<path opacity="0.03" d="M68.697 46.1667L69.1441 49.0242L86.8436 55.2092L86.3273 51.8937L68.697 46.1667Z" fill="black"/>
<path opacity="0.03" d="M55.6128 55.5577L68.697 46.1667L69.2687 49.0222L56.416 58.6442L55.6128 55.5577Z" fill="black"/>
<path d="M68.6654 45.9556L69.0492 48.4188L86.7487 54.6038L86.2937 51.6826L68.6654 45.9556Z" fill="#EFF0F4"/>
<path d="M55.5792 55.3446L68.6654 45.9556L69.1738 48.4168L56.3211 58.0388L55.5792 55.3446Z" fill="#EFF0F4"/>
<path opacity="0.03" d="M68.6654 45.9556L69.0492 48.4188L86.7487 54.6038L86.2937 51.6826L68.6654 45.9556Z" fill="black"/>
<path opacity="0.03" d="M55.5792 55.3446L68.6654 45.9556L69.1738 48.4168L56.3211 58.0388L55.5792 55.3446Z" fill="black"/>
<path d="M55.5792 55.3446L56.1707 58.8951L71.9869 68.4076L71.5972 64.7535L55.5792 55.3446Z" fill="#CCCAD6"/>
<path d="M62.786 54.783C62.786 54.783 62.511 55.3107 62.9304 55.5537C63.1283 55.6692 64.5585 55.9519 65.9948 56.2227C66.699 56.3542 67.4053 56.4816 67.973 56.5812C68.6654 56.7046 69.1441 56.7803 69.1441 56.7803H69.5081L71.708 56.8221L73.7772 56.862L74.6536 56.6808L74.1491 53.2199L71.5299 50.3225L70.9819 50.7885L70.889 50.8681L69.4488 51.5731L65.3854 53.5644L63.5575 54.4604L63.3439 54.566L62.786 54.783Z" fill="#FFE09C"/>
<path d="M76.1332 56.4537C76.1332 56.4537 75.6407 52.6703 74.2203 51.344C74.2203 51.344 73.0531 50.1493 72.335 49.8227C72.335 49.8227 71.7237 49.3866 71.1223 50.7009C71.1223 50.7009 73.4309 52.1227 73.9295 54.335L74.426 56.5473L76.1332 56.4537Z" fill="#E7C4C3"/>
<path d="M73.3569 55.1033C73.651 54.6399 73.449 53.9811 72.9058 53.6318C72.3625 53.2825 71.6837 53.375 71.3897 53.8384C71.0956 54.3018 71.2976 54.9606 71.8408 55.3099C72.384 55.6592 73.0628 55.5667 73.3569 55.1033Z" fill="#FF7F8E"/>
<path d="M69.7482 54.2816C70.0423 53.8182 69.8403 53.1594 69.2971 52.8101C68.7539 52.4608 68.0751 52.5533 67.781 53.0167C67.4869 53.4801 67.6889 54.1389 68.2322 54.4882C68.7754 54.8375 69.4542 54.745 69.7482 54.2816Z" fill="#FF7F8E"/>
<path d="M69.4487 51.575C69.4641 51.7709 69.526 51.9602 69.6293 52.1269C69.7326 52.2936 69.8742 52.4328 70.0422 52.5329C70.5843 52.8813 71.2628 52.7897 71.5556 52.3337C71.8484 51.8777 71.6486 51.2126 71.1045 50.8641C71.0674 50.8403 71.0291 50.8184 70.9898 50.7984L70.8968 50.8781L69.4487 51.575Z" fill="#FF7F8E"/>
<path d="M69.607 56.0535C69.5396 56.1626 69.4958 56.2848 69.4784 56.4121C69.4611 56.5394 69.4705 56.6689 69.5061 56.7923L71.7059 56.8341C71.6974 56.6314 71.6387 56.4342 71.535 56.2603C71.4313 56.0863 71.2861 55.9413 71.1124 55.8384C70.5783 55.4979 69.8997 55.5915 69.607 56.0535Z" fill="#FF7F8E"/>
<path d="M66.0223 55.2908C65.9387 55.4307 65.8922 55.5899 65.8874 55.7531C65.8825 55.9163 65.9195 56.0781 65.9947 56.2227C66.6989 56.3542 67.4052 56.4816 67.9729 56.5812L67.9907 56.5553C68.2835 56.0933 68.0817 55.4342 67.5397 55.0857C66.9976 54.7372 66.3171 54.8288 66.0223 55.2908Z" fill="#FF7F8E"/>
<path d="M63.5575 54.4644C63.6422 54.5595 63.7394 54.6426 63.8463 54.7114C64.3884 55.0598 65.0669 54.9682 65.3597 54.5122C65.4439 54.3717 65.4906 54.2117 65.4951 54.0477C65.4996 53.8837 65.4618 53.7213 65.3854 53.5763L63.5575 54.4644Z" fill="#FF7F8E"/>
<path d="M73.0175 55.8544L72.8196 56.171C72.6147 55.9556 72.3656 55.7878 72.0897 55.6791L72.0323 55.6652C71.6624 55.5975 72.2301 55.3486 72.2301 55.3486C72.2301 55.3486 72.9403 55.6453 73.0175 55.8544Z" fill="#94CC79"/>
<path d="M71.2984 53.5684L71.1005 53.887C70.8959 53.6708 70.6467 53.5022 70.3706 53.3931L70.3132 53.3792C69.9452 53.3135 70.511 53.0626 70.511 53.0626C70.511 53.0626 71.2212 53.3593 71.2984 53.5684Z" fill="#94CC79"/>
<path d="M70.2262 54.4147L70.0284 54.7313C69.8234 54.5159 69.5743 54.3481 69.2984 54.2394L69.241 54.2255C68.8711 54.1578 69.4389 53.9089 69.4389 53.9089C69.4389 53.9089 70.1471 54.2016 70.2262 54.4147Z" fill="#94CC79"/>
<path d="M67.9374 55.2112L67.7396 55.5298C67.5349 55.3136 67.2858 55.145 67.0096 55.0359L66.9522 55.022C66.5823 54.9563 67.15 54.7054 67.15 54.7054C67.15 54.7054 67.8583 54.9941 67.9374 55.2112Z" fill="#94CC79"/>
<path d="M64.6218 55.0917L64.4239 55.4103C64.2184 55.1942 63.9686 55.0257 63.692 54.9165L63.6346 54.9025C63.2667 54.8368 63.8324 54.5859 63.8324 54.5859C63.8324 54.5859 64.5407 54.8806 64.6218 55.0917Z" fill="#94CC79"/>
<path d="M67.3419 53.8969L67.1441 54.2135C66.9394 53.9973 66.6903 53.8288 66.4141 53.7197L66.3568 53.7057C65.9868 53.64 66.5546 53.3891 66.5546 53.3891C66.5546 53.3891 67.2628 53.6858 67.3419 53.8969Z" fill="#94CC79"/>
<path d="M75.5022 57.4355C75.5022 57.4355 76.7742 57.2961 76.1254 56.4537C75.4362 56.2844 74.7154 56.2968 74.0324 56.4896C74.0324 56.4896 68.6179 56.7325 67.9156 56.3422C67.9156 56.3422 63.0095 55.5457 62.8117 55.2948C62.8117 55.2948 62.416 55.3824 63.6188 55.9201C64.8216 56.4577 68.6693 57.0193 68.6693 57.0193L72.7505 57.3458L74.2183 57.1626L75.5022 57.4355Z" fill="#E7C4C3"/>
<path opacity="0.2" d="M75.5022 57.4355C75.5022 57.4355 76.7742 57.2961 76.1254 56.4537C75.4362 56.2844 74.7154 56.2968 74.0324 56.4896C74.0324 56.4896 68.6179 56.7325 67.9156 56.3422C67.9156 56.3422 63.0095 55.5457 62.8117 55.2948C62.8117 55.2948 62.416 55.3824 63.6188 55.9201C64.8216 56.4577 68.6693 57.0193 68.6693 57.0193L72.7505 57.3458L74.2183 57.1626L75.5022 57.4355Z" fill="white"/>
<path d="M71.6447 55.482C71.5852 55.6682 71.5709 55.8661 71.6029 56.059C71.6349 56.252 71.7123 56.4344 71.8286 56.5912C72.2005 57.1189 72.8633 57.2901 73.3104 56.9735C73.7574 56.6569 73.8148 55.9778 73.4409 55.4402C73.4152 55.4043 73.3875 55.3685 73.3598 55.3346L73.2411 55.3745L71.6447 55.482Z" fill="#FF7F8E"/>
<path d="M71.5972 64.7535L86.2936 51.6826L86.7447 54.568L71.9869 68.4076L71.5972 64.7535Z" fill="#CCCAD6"/>
<path d="M88.2006 52.4273L86.2936 51.6826L93.7022 30.4911L95.1146 31.4947L88.2006 52.4273Z" fill="#CCCAD6"/>
<g opacity="0.1">
<path d="M76.2737 83.3145C76.2885 82.8019 76.3622 82.2927 76.4933 81.7971L76.3964 81.831C76.3014 82.3194 76.2603 82.817 76.2737 83.3145Z" fill="white"/>
<path d="M77.2569 90.4573C75.7178 90.5489 70.9463 88.3386 69.9908 87.1836C69.8646 87.028 69.7875 86.838 69.7692 86.638C69.7409 86.8003 69.746 86.9668 69.7841 87.127C69.8223 87.2873 69.8926 87.438 69.9908 87.5699C70.9463 88.7249 75.7178 90.9332 77.2569 90.8416C78.883 90.746 84.3331 91.0408 84.525 88.5317C84.5383 88.4643 84.5293 88.3944 84.4993 88.3326C84.0601 90.6385 78.8415 90.3677 77.2569 90.4573Z" fill="white"/>
</g>
<path d="M82.8455 43.7373C82.8455 43.7373 83.1857 43.339 82.8771 43.0522C82.7288 42.9129 81.5655 42.3792 80.3944 41.8575C79.8187 41.6026 79.2391 41.3517 78.7782 41.1525L77.8187 40.7403L77.5081 40.6607L75.6387 40.1808L73.88 39.7287L73.0887 39.7068L72.8236 42.7715L74.4834 45.7744L75.0412 45.4876L75.1382 45.4378L76.5091 45.1272L80.3825 44.259L82.1214 43.8607L82.3192 43.8149L82.8455 43.7373Z" fill="#FFE09C"/>
<path d="M71.7831 39.6133C71.7831 39.6133 71.4487 42.9427 72.3963 44.3625C72.3963 44.3625 73.156 45.6131 73.702 46.0432C73.702 46.0432 74.1372 46.537 74.9146 45.5374C74.9146 45.5374 73.2252 43.8567 73.243 41.8674L73.2588 39.8761L71.7831 39.6133Z" fill="#E7C4C3"/>
<path d="M75.3107 42.8208C75.6538 42.485 75.6128 41.8824 75.219 41.4747C74.8253 41.067 74.228 41.0087 73.8848 41.3444C73.5417 41.6802 73.5827 42.2829 73.9765 42.6906C74.3702 43.0983 74.9675 43.1566 75.3107 42.8208Z" fill="#FF7F8E"/>
<path d="M78.2287 44.25C78.5719 43.9142 78.5309 43.3115 78.1371 42.9038C77.7434 42.4961 77.1461 42.4378 76.8029 42.7736C76.4598 43.1093 76.5008 43.712 76.8945 44.1197C77.2883 44.5274 77.8856 44.5857 78.2287 44.25Z" fill="#FF7F8E"/>
<path d="M76.5171 45.1292C76.5434 44.9597 76.5291 44.7864 76.4754 44.6236C76.4217 44.4608 76.3302 44.3133 76.2085 44.1933C75.8128 43.795 75.2194 43.7273 74.8732 44.0638C74.527 44.4004 74.5725 45.0017 74.9661 45.41C74.9924 45.438 75.0201 45.4646 75.0492 45.4896L75.1462 45.4398L76.5171 45.1292Z" fill="#FF7F8E"/>
<path d="M77.2827 41.272C77.362 41.1924 77.4237 41.0968 77.4636 40.9914C77.5035 40.886 77.5207 40.7733 77.5141 40.6607L75.6447 40.1808C75.6124 40.3538 75.6232 40.5322 75.676 40.7C75.7288 40.8678 75.822 41.0198 75.9473 41.1426C76.3351 41.5528 76.9325 41.6105 77.2827 41.272Z" fill="#FF7F8E"/>
<path d="M80.1828 42.65C80.2829 42.5466 80.355 42.4191 80.392 42.2796C80.4291 42.1401 80.4299 41.9934 80.3944 41.8535C79.8188 41.5986 79.2391 41.3477 78.7782 41.1486L78.7564 41.1665C78.4142 41.503 78.4557 42.1064 78.8494 42.5146C79.2431 42.9228 79.8405 42.9865 80.1828 42.65Z" fill="#FF7F8E"/>
<path d="M82.1214 43.8607C82.069 43.7618 82.0023 43.6712 81.9236 43.5919C81.5279 43.1837 80.9345 43.1259 80.5903 43.4625C80.4896 43.5655 80.4174 43.6931 80.3806 43.8328C80.3439 43.9724 80.3438 44.1193 80.3806 44.259L82.1214 43.8607Z" fill="#FF7F8E"/>
<path d="M74.3153 40.7543L74.5507 40.5253C74.6834 40.7505 74.8629 40.9441 75.0769 41.0928L75.1224 41.1167C75.4251 41.2481 74.887 41.3457 74.887 41.3457C74.887 41.3457 74.3489 40.9494 74.3153 40.7543Z" fill="#94CC79"/>
<path d="M75.3361 43.0642L75.5695 42.8332C75.7019 43.0591 75.8814 43.2535 76.0957 43.4027L76.1412 43.4246C76.4439 43.558 75.9058 43.6556 75.9058 43.6556C75.9058 43.6556 75.3598 43.2474 75.3361 43.0642Z" fill="#94CC79"/>
<path d="M76.4181 42.5524L76.6535 42.3214C76.7859 42.5474 76.9654 42.7417 77.1797 42.891L77.2252 42.9129C77.5279 43.0463 76.9898 43.1439 76.9898 43.1439C76.9898 43.1439 76.4438 42.7476 76.4181 42.5524Z" fill="#94CC79"/>
<path d="M78.5309 42.3374L78.7663 42.1064C78.8984 42.3319 79.0772 42.5261 79.2905 42.6759L79.338 42.6998C79.6387 42.8312 79.1026 42.9288 79.1026 42.9288C79.1026 42.9288 78.5566 42.5325 78.5309 42.3374Z" fill="#94CC79"/>
<path d="M81.342 43.106L81.5775 42.875C81.7088 43.1011 81.8877 43.2955 82.1017 43.4445L82.1492 43.4664C82.4499 43.5999 81.9138 43.6974 81.9138 43.6974C81.9138 43.6974 81.3678 43.2992 81.342 43.106Z" fill="#94CC79"/>
<path d="M78.7782 43.574L79.0136 43.345C79.1463 43.5701 79.3258 43.7638 79.5398 43.9125C79.5539 43.9224 79.5692 43.9304 79.5853 43.9364C79.888 44.0678 79.3499 44.1674 79.3499 44.1674C79.3499 44.1674 78.8039 43.7691 78.7782 43.574Z" fill="#94CC79"/>
<path d="M72.5111 38.9004C72.5111 38.9004 71.3974 38.763 71.7831 39.6133C72.3375 39.8983 72.9553 40.0354 73.5774 40.0115C73.5774 40.0115 78.2481 40.8997 78.7703 41.3736C78.7703 41.3736 82.8 43.0423 82.9247 43.3012C82.9247 43.3012 83.2788 43.3012 82.3609 42.6022C81.443 41.9033 78.2718 40.6388 78.2718 40.6388L74.8534 39.5336L73.5636 39.3922L72.5111 38.9004Z" fill="#E7C4C3"/>
<path opacity="0.2" d="M72.5111 38.9004C72.5111 38.9004 71.3974 38.763 71.7831 39.6133C72.3375 39.8983 72.9553 40.0354 73.5774 40.0115C73.5774 40.0115 78.2481 40.8997 78.7703 41.3736C78.7703 41.3736 82.8 43.0423 82.9247 43.3012C82.9247 43.3012 83.2788 43.3012 82.3609 42.6022C81.443 41.9033 78.2718 40.6388 78.2718 40.6388L74.8534 39.5336L73.5636 39.3922L72.5111 38.9004Z" fill="white"/>
<path d="M66.8157 43.5381C67.3839 43.238 67.8981 42.8443 68.337 42.3732C68.5348 42.1382 68.701 41.8734 68.9048 41.6424C69.4184 41.09 70.0859 40.7069 70.8197 40.5432C71.5477 40.3823 72.2922 40.3094 73.0374 40.3262C73.536 40.2942 74.0363 40.3549 74.5131 40.5054C74.7517 40.5839 74.9665 40.7221 75.1374 40.9071C75.3083 41.092 75.4298 41.3176 75.4904 41.5628C75.5992 42.1601 75.2115 42.7396 74.7466 43.1239C74.3137 43.4795 73.8043 43.7284 73.2589 43.8508C72.8144 43.9282 72.366 43.9807 71.9157 44.0081C69.2688 44.2869 66.9067 45.7365 64.5961 47.0568C62.5585 48.2177 61.4032 48.1639 59.2885 49.1715C59.2054 48.5343 58.2479 49.0282 58.2617 48.385C58.2736 47.9051 58.2974 47.1723 58.7484 46.8895C59.2726 46.5609 60.1332 46.4912 60.7267 46.2921C62.0902 45.8421 63.4219 45.2999 64.7128 44.6692C65.4263 44.3174 66.1273 43.9404 66.8157 43.5381Z" fill="#A0616A"/>
<path opacity="0.1" d="M49.3358 41.7559L59.4783 50.9956C59.4783 50.9956 61.3913 47.1464 61.965 47.1464C62.5387 47.1464 55.0807 35.7959 55.0807 35.7959C55.0807 35.7959 53.1677 33.486 52.0203 34.641C50.8729 35.7959 47.4228 35.0173 49.3358 41.7559Z" fill="black"/>
<path d="M49.144 41.3716L59.2805 50.6112C59.2805 50.6112 61.1935 46.7601 61.7672 46.7601C62.3409 46.7601 54.8809 35.4096 54.8809 35.4096C54.8809 35.4096 52.9679 33.0977 51.8205 34.2527C50.6731 35.4076 47.231 34.633 49.144 41.3716Z" fill="#5C7A77"/>
<path d="M65.8325 25.0847C66.0539 24.8369 66.2336 24.5544 66.3647 24.2483C67.2391 22.257 65.8523 19.7559 63.4843 19.0709C62.2974 18.7224 60.968 18.7921 59.783 18.4218C58.8295 18.1251 58.0263 17.5635 57.1519 17.1254C55.5088 16.3105 53.6907 15.9178 51.8601 15.9824C50.0698 16.0461 48.1232 16.6794 47.3892 18.0713C46.317 20.0984 48.2893 22.6513 47.0945 24.6247C46.2161 26.0744 44.0855 26.5025 42.3189 27.1317C40.49 27.7685 38.8249 28.8072 37.4445 30.1725C36.0597 31.5664 35.0706 33.478 35.767 35.2065C36.1725 36.2201 37.0884 37.0126 37.8164 37.8868C39.031 39.3212 39.7415 41.1189 39.8377 43.0012C39.9339 44.8834 39.4105 46.745 38.3486 48.2973C38.0083 48.7892 37.6107 49.2691 37.4702 49.8267C37.1339 51.1569 38.491 52.495 40.0598 52.7539C41.6285 53.0128 43.2566 52.4233 44.4772 51.5531C45.6041 50.7712 46.5111 49.7093 47.1103 48.4706C48.5604 45.3761 47.5415 41.8993 47.3971 38.5678C47.3793 38.1795 47.3971 37.7574 47.6682 37.4527C48.0875 36.9967 48.8789 37.0086 49.5554 36.9489C51.3062 36.7936 52.9185 35.8059 53.6603 34.4438C55.0787 31.8233 53.4269 28.1613 55.9056 26.1899C59.0253 23.7087 63.516 27.6316 65.8325 25.0847Z" fill="#3F3D56"/>
<path opacity="0.1" d="M63.4843 19.063H63.4646C64.3904 20.1423 64.7386 21.5999 64.1886 22.8584C64.0575 23.1644 63.8778 23.4469 63.6565 23.6948C61.3399 26.2416 56.8493 22.3188 53.7296 24.7999C51.2508 26.7713 52.9026 30.4333 51.4842 33.0539C50.7483 34.416 49.1301 35.4036 47.3793 35.559C46.7028 35.6187 45.9115 35.6068 45.4921 36.0628C45.2132 36.3674 45.2033 36.7896 45.2211 37.1779C45.3655 40.5094 46.3843 43.9862 44.9342 47.0807C44.3351 48.3194 43.428 49.3812 42.3012 50.1632C41.0806 51.0294 39.4544 51.6268 37.8837 51.368L37.7749 51.3441C38.0431 51.7213 38.3833 52.0409 38.7756 52.2844C39.1679 52.5278 39.6045 52.6901 40.0598 52.7619C41.6305 53.0187 43.2468 52.4214 44.4772 51.5531C45.6041 50.7712 46.5111 49.7093 47.1103 48.4706C48.5604 45.3761 47.5416 41.8993 47.3971 38.5678C47.3793 38.1795 47.3971 37.7574 47.6682 37.4527C48.0876 36.9967 48.8789 37.0086 49.5554 36.9489C51.3062 36.7936 52.9185 35.8059 53.6603 34.4438C55.0787 31.8233 53.4269 28.1613 55.9056 26.1899C59.0254 23.7087 63.516 27.6316 65.8325 25.0847C66.0539 24.8369 66.2336 24.5544 66.3647 24.2483C67.2391 22.2511 65.8523 19.7659 63.4843 19.063Z" fill="black"/>
</g>
<defs>
<clipPath id="clip0_28_619">
<rect width="206" height="115" fill="white" transform="translate(0 0.5)"/>
</clipPath>
</defs>
</svg>
